<?xml version="1.0" encoding="utf-8" standalone="no"?>
<!DOCTYPE svg PUBLIC "-//W3C//DTD SVG 1.1//EN"
  "http://www.w3.org/Graphics/SVG/1.1/DTD/svg11.dtd">
<svg xmlns:xlink="http://www.w3.org/1999/xlink" width="460.8pt" height="345.6pt" viewBox="0 0 460.8 345.6" xmlns="http://www.w3.org/2000/svg" version="1.1">
 <metadata>
  <rdf:RDF xmlns:dc="http://purl.org/dc/elements/1.1/" xmlns:cc="http://creativecommons.org/ns#" xmlns:rdf="http://www.w3.org/1999/02/22-rdf-syntax-ns#">
   <cc:Work>
    <dc:type rdf:resource="http://purl.org/dc/dcmitype/StillImage"/>
    <dc:date>2026-06-03T17:02:46.910041</dc:date>
    <dc:format>image/svg+xml</dc:format>
    <dc:creator>
     <cc:Agent>
      <dc:title>Matplotlib v3.10.8, https://matplotlib.org/</dc:title>
     </cc:Agent>
    </dc:creator>
   </cc:Work>
  </rdf:RDF>
 </metadata>
 <defs>
  <style type="text/css">*{stroke-linejoin: round; stroke-linecap: butt}</style>
 </defs>
 <g id="figure_1">
  <g id="patch_1">
   <path d="M 0 345.6 
L 460.8 345.6 
L 460.8 0 
L 0 0 
z
" style="fill: #ffffff"/>
  </g>
  <g id="axes_1">
   <g id="patch_2">
    <path d="M 57.6 307.584 
L 414.72 307.584 
L 414.72 41.472 
L 57.6 41.472 
z
" style="fill: #ffffff"/>
   </g>
   <g id="matplotlib.axis_1">
    <g id="xtick_1">
     <g id="line2d_1">
      <path d="M 73.832727 307.584 
L 73.832727 41.472 
" clip-path="url(#p46d2c5a368)" style="fill: none; stroke: #b0b0b0; stroke-width: 0.8; stroke-linecap: square"/>
     </g>
     <g id="line2d_2">
      <defs>
       <path id="m40df935616" d="M 0 0 
L 0 3.5 
" style="stroke: #000000; stroke-width: 0.8"/>
      </defs>
      <g>
       <use xlink:href="#m40df935616" x="73.832727" y="307.584" style="stroke: #000000; stroke-width: 0.8"/>
      </g>
     </g>
     <g id="text_1">
      <!-- 0 -->
      <g transform="translate(70.651477 322.182437) scale(0.1 -0.1)">
       <defs>
        <path id="DejaVuSans-30" d="M 2034 4250 
Q 1547 4250 1301 3770 
Q 1056 3291 1056 2328 
Q 1056 1369 1301 889 
Q 1547 409 2034 409 
Q 2525 409 2770 889 
Q 3016 1369 3016 2328 
Q 3016 3291 2770 3770 
Q 2525 4250 2034 4250 
z
M 2034 4750 
Q 2819 4750 3233 4129 
Q 3647 3509 3647 2328 
Q 3647 1150 3233 529 
Q 2819 -91 2034 -91 
Q 1250 -91 836 529 
Q 422 1150 422 2328 
Q 422 3509 836 4129 
Q 1250 4750 2034 4750 
z
" transform="scale(0.015625)"/>
       </defs>
       <use xlink:href="#DejaVuSans-30"/>
      </g>
     </g>
    </g>
    <g id="xtick_2">
     <g id="line2d_3">
      <path d="M 138.764935 307.584 
L 138.764935 41.472 
" clip-path="url(#p46d2c5a368)" style="fill: none; stroke: #b0b0b0; stroke-width: 0.8; stroke-linecap: square"/>
     </g>
     <g id="line2d_4">
      <g>
       <use xlink:href="#m40df935616" x="138.764935" y="307.584" style="stroke: #000000; stroke-width: 0.8"/>
      </g>
     </g>
     <g id="text_2">
      <!-- 10000 -->
      <g transform="translate(122.858685 322.182437) scale(0.1 -0.1)">
       <defs>
        <path id="DejaVuSans-31" d="M 794 531 
L 1825 531 
L 1825 4091 
L 703 3866 
L 703 4441 
L 1819 4666 
L 2450 4666 
L 2450 531 
L 3481 531 
L 3481 0 
L 794 0 
L 794 531 
z
" transform="scale(0.015625)"/>
       </defs>
       <use xlink:href="#DejaVuSans-31"/>
       <use xlink:href="#DejaVuSans-30" transform="translate(63.623047 0)"/>
       <use xlink:href="#DejaVuSans-30" transform="translate(127.246094 0)"/>
       <use xlink:href="#DejaVuSans-30" transform="translate(190.869141 0)"/>
       <use xlink:href="#DejaVuSans-30" transform="translate(254.492188 0)"/>
      </g>
     </g>
    </g>
    <g id="xtick_3">
     <g id="line2d_5">
      <path d="M 203.697143 307.584 
L 203.697143 41.472 
" clip-path="url(#p46d2c5a368)" style="fill: none; stroke: #b0b0b0; stroke-width: 0.8; stroke-linecap: square"/>
     </g>
     <g id="line2d_6">
      <g>
       <use xlink:href="#m40df935616" x="203.697143" y="307.584" style="stroke: #000000; stroke-width: 0.8"/>
      </g>
     </g>
     <g id="text_3">
      <!-- 20000 -->
      <g transform="translate(187.790893 322.182437) scale(0.1 -0.1)">
       <defs>
        <path id="DejaVuSans-32" d="M 1228 531 
L 3431 531 
L 3431 0 
L 469 0 
L 469 531 
Q 828 903 1448 1529 
Q 2069 2156 2228 2338 
Q 2531 2678 2651 2914 
Q 2772 3150 2772 3378 
Q 2772 3750 2511 3984 
Q 2250 4219 1831 4219 
Q 1534 4219 1204 4116 
Q 875 4013 500 3803 
L 500 4441 
Q 881 4594 1212 4672 
Q 1544 4750 1819 4750 
Q 2544 4750 2975 4387 
Q 3406 4025 3406 3419 
Q 3406 3131 3298 2873 
Q 3191 2616 2906 2266 
Q 2828 2175 2409 1742 
Q 1991 1309 1228 531 
z
" transform="scale(0.015625)"/>
       </defs>
       <use xlink:href="#DejaVuSans-32"/>
       <use xlink:href="#DejaVuSans-30" transform="translate(63.623047 0)"/>
       <use xlink:href="#DejaVuSans-30" transform="translate(127.246094 0)"/>
       <use xlink:href="#DejaVuSans-30" transform="translate(190.869141 0)"/>
       <use xlink:href="#DejaVuSans-30" transform="translate(254.492188 0)"/>
      </g>
     </g>
    </g>
    <g id="xtick_4">
     <g id="line2d_7">
      <path d="M 268.62935 307.584 
L 268.62935 41.472 
" clip-path="url(#p46d2c5a368)" style="fill: none; stroke: #b0b0b0; stroke-width: 0.8; stroke-linecap: square"/>
     </g>
     <g id="line2d_8">
      <g>
       <use xlink:href="#m40df935616" x="268.62935" y="307.584" style="stroke: #000000; stroke-width: 0.8"/>
      </g>
     </g>
     <g id="text_4">
      <!-- 30000 -->
      <g transform="translate(252.7231 322.182437) scale(0.1 -0.1)">
       <defs>
        <path id="DejaVuSans-33" d="M 2597 2516 
Q 3050 2419 3304 2112 
Q 3559 1806 3559 1356 
Q 3559 666 3084 287 
Q 2609 -91 1734 -91 
Q 1441 -91 1130 -33 
Q 819 25 488 141 
L 488 750 
Q 750 597 1062 519 
Q 1375 441 1716 441 
Q 2309 441 2620 675 
Q 2931 909 2931 1356 
Q 2931 1769 2642 2001 
Q 2353 2234 1838 2234 
L 1294 2234 
L 1294 2753 
L 1863 2753 
Q 2328 2753 2575 2939 
Q 2822 3125 2822 3475 
Q 2822 3834 2567 4026 
Q 2313 4219 1838 4219 
Q 1578 4219 1281 4162 
Q 984 4106 628 3988 
L 628 4550 
Q 988 4650 1302 4700 
Q 1616 4750 1894 4750 
Q 2613 4750 3031 4423 
Q 3450 4097 3450 3541 
Q 3450 3153 3228 2886 
Q 3006 2619 2597 2516 
z
" transform="scale(0.015625)"/>
       </defs>
       <use xlink:href="#DejaVuSans-33"/>
       <use xlink:href="#DejaVuSans-30" transform="translate(63.623047 0)"/>
       <use xlink:href="#DejaVuSans-30" transform="translate(127.246094 0)"/>
       <use xlink:href="#DejaVuSans-30" transform="translate(190.869141 0)"/>
       <use xlink:href="#DejaVuSans-30" transform="translate(254.492188 0)"/>
      </g>
     </g>
    </g>
    <g id="xtick_5">
     <g id="line2d_9">
      <path d="M 333.561558 307.584 
L 333.561558 41.472 
" clip-path="url(#p46d2c5a368)" style="fill: none; stroke: #b0b0b0; stroke-width: 0.8; stroke-linecap: square"/>
     </g>
     <g id="line2d_10">
      <g>
       <use xlink:href="#m40df935616" x="333.561558" y="307.584" style="stroke: #000000; stroke-width: 0.8"/>
      </g>
     </g>
     <g id="text_5">
      <!-- 40000 -->
      <g transform="translate(317.655308 322.182437) scale(0.1 -0.1)">
       <defs>
        <path id="DejaVuSans-34" d="M 2419 4116 
L 825 1625 
L 2419 1625 
L 2419 4116 
z
M 2253 4666 
L 3047 4666 
L 3047 1625 
L 3713 1625 
L 3713 1100 
L 3047 1100 
L 3047 0 
L 2419 0 
L 2419 1100 
L 313 1100 
L 313 1709 
L 2253 4666 
z
" transform="scale(0.015625)"/>
       </defs>
       <use xlink:href="#DejaVuSans-34"/>
       <use xlink:href="#DejaVuSans-30" transform="translate(63.623047 0)"/>
       <use xlink:href="#DejaVuSans-30" transform="translate(127.246094 0)"/>
       <use xlink:href="#DejaVuSans-30" transform="translate(190.869141 0)"/>
       <use xlink:href="#DejaVuSans-30" transform="translate(254.492188 0)"/>
      </g>
     </g>
    </g>
    <g id="xtick_6">
     <g id="line2d_11">
      <path d="M 398.493766 307.584 
L 398.493766 41.472 
" clip-path="url(#p46d2c5a368)" style="fill: none; stroke: #b0b0b0; stroke-width: 0.8; stroke-linecap: square"/>
     </g>
     <g id="line2d_12">
      <g>
       <use xlink:href="#m40df935616" x="398.493766" y="307.584" style="stroke: #000000; stroke-width: 0.8"/>
      </g>
     </g>
     <g id="text_6">
      <!-- 50000 -->
      <g transform="translate(382.587516 322.182437) scale(0.1 -0.1)">
       <defs>
        <path id="DejaVuSans-35" d="M 691 4666 
L 3169 4666 
L 3169 4134 
L 1269 4134 
L 1269 2991 
Q 1406 3038 1543 3061 
Q 1681 3084 1819 3084 
Q 2600 3084 3056 2656 
Q 3513 2228 3513 1497 
Q 3513 744 3044 326 
Q 2575 -91 1722 -91 
Q 1428 -91 1123 -41 
Q 819 9 494 109 
L 494 744 
Q 775 591 1075 516 
Q 1375 441 1709 441 
Q 2250 441 2565 725 
Q 2881 1009 2881 1497 
Q 2881 1984 2565 2268 
Q 2250 2553 1709 2553 
Q 1456 2553 1204 2497 
Q 953 2441 691 2322 
L 691 4666 
z
" transform="scale(0.015625)"/>
       </defs>
       <use xlink:href="#DejaVuSans-35"/>
       <use xlink:href="#DejaVuSans-30" transform="translate(63.623047 0)"/>
       <use xlink:href="#DejaVuSans-30" transform="translate(127.246094 0)"/>
       <use xlink:href="#DejaVuSans-30" transform="translate(190.869141 0)"/>
       <use xlink:href="#DejaVuSans-30" transform="translate(254.492188 0)"/>
      </g>
     </g>
    </g>
   </g>
   <g id="matplotlib.axis_2">
    <g id="ytick_1">
     <g id="line2d_13">
      <path d="M 57.6 267.580789 
L 414.72 267.580789 
" clip-path="url(#p46d2c5a368)" style="fill: none; stroke: #b0b0b0; stroke-width: 0.8; stroke-linecap: square"/>
     </g>
     <g id="line2d_14">
      <defs>
       <path id="mca225f27d2" d="M 0 0 
L -3.5 0 
" style="stroke: #000000; stroke-width: 0.8"/>
      </defs>
      <g>
       <use xlink:href="#mca225f27d2" x="57.6" y="267.580789" style="stroke: #000000; stroke-width: 0.8"/>
      </g>
     </g>
     <g id="text_7">
      <!-- $\mathdefault{10^{-3}}$ -->
      <g transform="translate(27.1 271.380008) scale(0.1 -0.1)">
       <defs>
        <path id="DejaVuSans-2212" d="M 678 2272 
L 4684 2272 
L 4684 1741 
L 678 1741 
L 678 2272 
z
" transform="scale(0.015625)"/>
       </defs>
       <use xlink:href="#DejaVuSans-31" transform="translate(0 0.765625)"/>
       <use xlink:href="#DejaVuSans-30" transform="translate(63.623047 0.765625)"/>
       <use xlink:href="#DejaVuSans-2212" transform="translate(128.203125 39.046875) scale(0.7)"/>
       <use xlink:href="#DejaVuSans-33" transform="translate(186.855469 39.046875) scale(0.7)"/>
      </g>
     </g>
    </g>
    <g id="ytick_2">
     <g id="line2d_15">
      <path d="M 57.6 196.541809 
L 414.72 196.541809 
" clip-path="url(#p46d2c5a368)" style="fill: none; stroke: #b0b0b0; stroke-width: 0.8; stroke-linecap: square"/>
     </g>
     <g id="line2d_16">
      <g>
       <use xlink:href="#mca225f27d2" x="57.6" y="196.541809" style="stroke: #000000; stroke-width: 0.8"/>
      </g>
     </g>
     <g id="text_8">
      <!-- $\mathdefault{10^{-2}}$ -->
      <g transform="translate(27.1 200.341028) scale(0.1 -0.1)">
       <use xlink:href="#DejaVuSans-31" transform="translate(0 0.765625)"/>
       <use xlink:href="#DejaVuSans-30" transform="translate(63.623047 0.765625)"/>
       <use xlink:href="#DejaVuSans-2212" transform="translate(128.203125 39.046875) scale(0.7)"/>
       <use xlink:href="#DejaVuSans-32" transform="translate(186.855469 39.046875) scale(0.7)"/>
      </g>
     </g>
    </g>
    <g id="ytick_3">
     <g id="line2d_17">
      <path d="M 57.6 125.502829 
L 414.72 125.502829 
" clip-path="url(#p46d2c5a368)" style="fill: none; stroke: #b0b0b0; stroke-width: 0.8; stroke-linecap: square"/>
     </g>
     <g id="line2d_18">
      <g>
       <use xlink:href="#mca225f27d2" x="57.6" y="125.502829" style="stroke: #000000; stroke-width: 0.8"/>
      </g>
     </g>
     <g id="text_9">
      <!-- $\mathdefault{10^{-1}}$ -->
      <g transform="translate(27.1 129.302048) scale(0.1 -0.1)">
       <use xlink:href="#DejaVuSans-31" transform="translate(0 0.684375)"/>
       <use xlink:href="#DejaVuSans-30" transform="translate(63.623047 0.684375)"/>
       <use xlink:href="#DejaVuSans-2212" transform="translate(128.203125 38.965625) scale(0.7)"/>
       <use xlink:href="#DejaVuSans-31" transform="translate(186.855469 38.965625) scale(0.7)"/>
      </g>
     </g>
    </g>
    <g id="ytick_4">
     <g id="line2d_19">
      <path d="M 57.6 54.463849 
L 414.72 54.463849 
" clip-path="url(#p46d2c5a368)" style="fill: none; stroke: #b0b0b0; stroke-width: 0.8; stroke-linecap: square"/>
     </g>
     <g id="line2d_20">
      <g>
       <use xlink:href="#mca225f27d2" x="57.6" y="54.463849" style="stroke: #000000; stroke-width: 0.8"/>
      </g>
     </g>
     <g id="text_10">
      <!-- $\mathdefault{10^{0}}$ -->
      <g transform="translate(33 58.263067) scale(0.1 -0.1)">
       <use xlink:href="#DejaVuSans-31" transform="translate(0 0.765625)"/>
       <use xlink:href="#DejaVuSans-30" transform="translate(63.623047 0.765625)"/>
       <use xlink:href="#DejaVuSans-30" transform="translate(128.203125 39.046875) scale(0.7)"/>
      </g>
     </g>
    </g>
    <g id="ytick_5">
     <g id="line2d_21">
      <defs>
       <path id="m8ef50cdb27" d="M 0 0 
L -2 0 
" style="stroke: #000000; stroke-width: 0.6"/>
      </defs>
      <g>
       <use xlink:href="#m8ef50cdb27" x="57.6" y="304.725562" style="stroke: #000000; stroke-width: 0.6"/>
      </g>
     </g>
    </g>
    <g id="ytick_6">
     <g id="line2d_22">
      <g>
       <use xlink:href="#m8ef50cdb27" x="57.6" y="295.850042" style="stroke: #000000; stroke-width: 0.6"/>
      </g>
     </g>
    </g>
    <g id="ytick_7">
     <g id="line2d_23">
      <g>
       <use xlink:href="#m8ef50cdb27" x="57.6" y="288.965653" style="stroke: #000000; stroke-width: 0.6"/>
      </g>
     </g>
    </g>
    <g id="ytick_8">
     <g id="line2d_24">
      <g>
       <use xlink:href="#m8ef50cdb27" x="57.6" y="283.340698" style="stroke: #000000; stroke-width: 0.6"/>
      </g>
     </g>
    </g>
    <g id="ytick_9">
     <g id="line2d_25">
      <g>
       <use xlink:href="#m8ef50cdb27" x="57.6" y="278.584867" style="stroke: #000000; stroke-width: 0.6"/>
      </g>
     </g>
    </g>
    <g id="ytick_10">
     <g id="line2d_26">
      <g>
       <use xlink:href="#m8ef50cdb27" x="57.6" y="274.465178" style="stroke: #000000; stroke-width: 0.6"/>
      </g>
     </g>
    </g>
    <g id="ytick_11">
     <g id="line2d_27">
      <g>
       <use xlink:href="#m8ef50cdb27" x="57.6" y="270.831355" style="stroke: #000000; stroke-width: 0.6"/>
      </g>
     </g>
    </g>
    <g id="ytick_12">
     <g id="line2d_28">
      <g>
       <use xlink:href="#m8ef50cdb27" x="57.6" y="246.195926" style="stroke: #000000; stroke-width: 0.6"/>
      </g>
     </g>
    </g>
    <g id="ytick_13">
     <g id="line2d_29">
      <g>
       <use xlink:href="#m8ef50cdb27" x="57.6" y="233.686582" style="stroke: #000000; stroke-width: 0.6"/>
      </g>
     </g>
    </g>
    <g id="ytick_14">
     <g id="line2d_30">
      <g>
       <use xlink:href="#m8ef50cdb27" x="57.6" y="224.811062" style="stroke: #000000; stroke-width: 0.6"/>
      </g>
     </g>
    </g>
    <g id="ytick_15">
     <g id="line2d_31">
      <g>
       <use xlink:href="#m8ef50cdb27" x="57.6" y="217.926673" style="stroke: #000000; stroke-width: 0.6"/>
      </g>
     </g>
    </g>
    <g id="ytick_16">
     <g id="line2d_32">
      <g>
       <use xlink:href="#m8ef50cdb27" x="57.6" y="212.301718" style="stroke: #000000; stroke-width: 0.6"/>
      </g>
     </g>
    </g>
    <g id="ytick_17">
     <g id="line2d_33">
      <g>
       <use xlink:href="#m8ef50cdb27" x="57.6" y="207.545886" style="stroke: #000000; stroke-width: 0.6"/>
      </g>
     </g>
    </g>
    <g id="ytick_18">
     <g id="line2d_34">
      <g>
       <use xlink:href="#m8ef50cdb27" x="57.6" y="203.426198" style="stroke: #000000; stroke-width: 0.6"/>
      </g>
     </g>
    </g>
    <g id="ytick_19">
     <g id="line2d_35">
      <g>
       <use xlink:href="#m8ef50cdb27" x="57.6" y="199.792375" style="stroke: #000000; stroke-width: 0.6"/>
      </g>
     </g>
    </g>
    <g id="ytick_20">
     <g id="line2d_36">
      <g>
       <use xlink:href="#m8ef50cdb27" x="57.6" y="175.156945" style="stroke: #000000; stroke-width: 0.6"/>
      </g>
     </g>
    </g>
    <g id="ytick_21">
     <g id="line2d_37">
      <g>
       <use xlink:href="#m8ef50cdb27" x="57.6" y="162.647602" style="stroke: #000000; stroke-width: 0.6"/>
      </g>
     </g>
    </g>
    <g id="ytick_22">
     <g id="line2d_38">
      <g>
       <use xlink:href="#m8ef50cdb27" x="57.6" y="153.772081" style="stroke: #000000; stroke-width: 0.6"/>
      </g>
     </g>
    </g>
    <g id="ytick_23">
     <g id="line2d_39">
      <g>
       <use xlink:href="#m8ef50cdb27" x="57.6" y="146.887693" style="stroke: #000000; stroke-width: 0.6"/>
      </g>
     </g>
    </g>
    <g id="ytick_24">
     <g id="line2d_40">
      <g>
       <use xlink:href="#m8ef50cdb27" x="57.6" y="141.262738" style="stroke: #000000; stroke-width: 0.6"/>
      </g>
     </g>
    </g>
    <g id="ytick_25">
     <g id="line2d_41">
      <g>
       <use xlink:href="#m8ef50cdb27" x="57.6" y="136.506906" style="stroke: #000000; stroke-width: 0.6"/>
      </g>
     </g>
    </g>
    <g id="ytick_26">
     <g id="line2d_42">
      <g>
       <use xlink:href="#m8ef50cdb27" x="57.6" y="132.387217" style="stroke: #000000; stroke-width: 0.6"/>
      </g>
     </g>
    </g>
    <g id="ytick_27">
     <g id="line2d_43">
      <g>
       <use xlink:href="#m8ef50cdb27" x="57.6" y="128.753394" style="stroke: #000000; stroke-width: 0.6"/>
      </g>
     </g>
    </g>
    <g id="ytick_28">
     <g id="line2d_44">
      <g>
       <use xlink:href="#m8ef50cdb27" x="57.6" y="104.117965" style="stroke: #000000; stroke-width: 0.6"/>
      </g>
     </g>
    </g>
    <g id="ytick_29">
     <g id="line2d_45">
      <g>
       <use xlink:href="#m8ef50cdb27" x="57.6" y="91.608622" style="stroke: #000000; stroke-width: 0.6"/>
      </g>
     </g>
    </g>
    <g id="ytick_30">
     <g id="line2d_46">
      <g>
       <use xlink:href="#m8ef50cdb27" x="57.6" y="82.733101" style="stroke: #000000; stroke-width: 0.6"/>
      </g>
     </g>
    </g>
    <g id="ytick_31">
     <g id="line2d_47">
      <g>
       <use xlink:href="#m8ef50cdb27" x="57.6" y="75.848713" style="stroke: #000000; stroke-width: 0.6"/>
      </g>
     </g>
    </g>
    <g id="ytick_32">
     <g id="line2d_48">
      <g>
       <use xlink:href="#m8ef50cdb27" x="57.6" y="70.223758" style="stroke: #000000; stroke-width: 0.6"/>
      </g>
     </g>
    </g>
    <g id="ytick_33">
     <g id="line2d_49">
      <g>
       <use xlink:href="#m8ef50cdb27" x="57.6" y="65.467926" style="stroke: #000000; stroke-width: 0.6"/>
      </g>
     </g>
    </g>
    <g id="ytick_34">
     <g id="line2d_50">
      <g>
       <use xlink:href="#m8ef50cdb27" x="57.6" y="61.348237" style="stroke: #000000; stroke-width: 0.6"/>
      </g>
     </g>
    </g>
    <g id="ytick_35">
     <g id="line2d_51">
      <g>
       <use xlink:href="#m8ef50cdb27" x="57.6" y="57.714414" style="stroke: #000000; stroke-width: 0.6"/>
      </g>
     </g>
    </g>
   </g>
   <g id="line2d_52">
    <path d="M 73.832727 53.568 
L 73.923632 54.216768 
L 74.157388 57.972906 
L 74.2418 62.822246 
L 74.631393 95.946913 
L 74.852163 100.367248 
L 75.443046 113.461165 
L 77.14427 150.822376 
L 78.0728 161.053393 
L 78.358502 165.96006 
L 78.371489 166.076102 
L 78.390968 165.398358 
L 78.403955 164.587074 
L 78.462394 167.891626 
L 78.47538 167.391824 
L 78.67667 172.202535 
L 78.871467 175.585575 
L 79.014317 178.472312 
L 79.157168 181.605712 
L 79.183141 181.399237 
L 79.566241 188.330242 
L 79.592214 187.473823 
L 79.598707 187.436103 
L 79.605201 188.029896 
L 79.715585 190.346265 
L 79.735065 190.265402 
L 80.20907 196.424664 
L 80.22855 196.026425 
L 80.235043 195.949241 
L 80.254523 196.869105 
L 80.371401 198.360443 
L 80.280496 196.787957 
L 80.39088 197.883695 
L 80.397373 197.726509 
L 80.423346 198.945913 
L 80.462306 198.803715 
L 80.585677 200.672126 
L 80.59217 200.508195 
L 80.605157 200.067691 
L 80.637623 201.249254 
L 80.670089 201.064043 
L 80.806446 203.129366 
L 80.81294 203.122828 
L 80.838912 202.689912 
L 80.871379 203.80671 
L 80.897351 203.526461 
L 80.916831 204.020889 
L 81.059682 205.864072 
L 80.968777 203.9851 
L 81.066175 205.729439 
L 81.085655 204.964874 
L 81.15708 206.549393 
L 81.286945 208.326299 
L 81.189546 206.473326 
L 81.293438 208.28717 
L 81.319411 207.760426 
L 81.351877 209.002342 
L 81.384343 208.603975 
L 81.592126 211.371836 
L 81.618099 210.346542 
L 81.624592 210.140013 
L 81.650565 211.901278 
L 81.683031 211.545495 
L 81.812896 213.440047 
L 81.845362 213.252284 
L 81.955746 214.611409 
L 82.066131 215.67175 
L 82.027172 214.09234 
L 82.092104 215.246074 
L 82.098597 215.185723 
L 82.111584 215.740332 
L 82.208982 216.904419 
L 82.170023 215.71941 
L 82.228462 216.285098 
L 82.241448 215.797402 
L 82.273914 217.423812 
L 82.312874 216.870787 
L 82.410272 218.516871 
L 82.436245 217.91549 
L 82.442738 217.780946 
L 82.475204 219.064756 
L 82.520657 218.471262 
L 82.618055 220.174029 
L 82.585589 218.359758 
L 82.637535 219.386382 
L 82.657014 218.984967 
L 82.682987 220.652159 
L 82.72844 220.061841 
L 82.819345 221.54647 
L 82.786879 219.94478 
L 82.838824 220.687216 
L 82.851811 220.247263 
L 82.884277 222.001059 
L 82.92973 221.180848 
L 83.014141 222.8349 
L 83.040114 221.905531 
L 83.046608 221.651724 
L 83.079074 223.219827 
L 83.124526 222.706497 
L 83.215431 223.964792 
L 83.241404 223.354997 
L 83.254391 223.084214 
L 83.29335 224.359671 
L 83.332309 223.807628 
L 83.371269 224.736645 
L 83.416721 223.287543 
L 83.442694 222.68895 
L 83.462174 224.727951 
L 83.546586 225.452143 
L 83.507626 223.159704 
L 83.566065 224.644432 
L 83.572558 224.378096 
L 83.611518 225.747287 
L 83.663464 225.150908 
L 83.780341 226.406216 
L 83.799821 226.231585 
L 83.83878 225.822031 
L 83.87774 226.663107 
L 83.890726 226.800846 
L 83.929686 225.77644 
L 83.981631 216.394694 
L 84.007604 227.054885 
L 84.04007 222.42717 
L 84.130975 227.403772 
L 84.156948 227.113668 
L 84.182921 226.988077 
L 84.273826 228.047408 
L 84.299799 228.013095 
L 84.429664 228.596895 
L 84.546542 228.91109 
L 84.695886 229.342183 
L 84.708872 229.320815 
L 84.754325 228.940962 
L 84.786791 229.429686 
L 84.80627 229.648436 
L 84.877696 229.035867 
L 84.929642 229.952819 
L 84.975094 228.87733 
L 85.02704 225.723454 
L 85.053013 229.10199 
L 85.130931 230.330834 
L 85.098465 226.790481 
L 85.156904 228.156238 
L 85.163398 227.896129 
L 85.195864 230.55467 
L 85.234823 228.78235 
L 85.319235 230.859703 
L 85.358194 230.025029 
L 85.449099 231.184262 
L 85.481565 230.789647 
L 85.494552 230.8816 
L 85.637403 231.594237 
L 85.669869 231.353786 
L 85.715321 229.243305 
L 85.760774 217.20063 
L 85.79324 231.416355 
L 85.825706 227.835874 
L 85.851679 225.938014 
L 85.942584 232.191734 
L 85.962064 231.233198 
L 86.014009 232.399894 
L 86.039982 232.24596 
L 86.163354 232.72734 
L 86.35815 233.133504 
L 86.767223 233.933215 
L 86.793196 233.985 
L 86.825662 233.759965 
L 86.871115 231.768771 
L 86.916567 228.328364 
L 86.949033 234.191632 
L 86.987993 230.869864 
L 87.072404 234.480454 
L 87.104871 232.437783 
L 87.254215 234.827619 
L 87.280187 234.456612 
L 87.319147 234.961735 
L 87.364599 234.832815 
L 87.513943 235.309029 
L 87.539916 235.342658 
L 87.572382 235.198778 
L 87.617835 233.481391 
L 87.669781 217.894392 
L 87.68926 211.450355 
L 87.70874 234.733833 
L 87.767179 227.774799 
L 87.864577 235.681672 
L 87.884057 234.536927 
L 87.981455 235.93056 
L 88.000935 235.861987 
L 88.020415 235.837727 
L 88.124306 236.172657 
L 88.29313 236.439236 
L 89.195688 237.716279 
L 89.234647 237.515177 
L 89.26062 237.344782 
L 89.306072 237.793713 
L 89.332045 237.928066 
L 89.383991 237.450446 
L 89.46191 235.589431 
L 89.494376 236.984521 
L 89.526842 238.179953 
L 89.585281 236.951224 
L 89.604761 237.089394 
L 89.6632 238.372785 
L 89.728132 237.570988 
L 89.793064 232.957878 
L 89.838516 217.093583 
L 89.864489 237.948617 
L 89.896955 230.776179 
L 89.922928 229.059304 
L 90.013833 238.515538 
L 90.02682 236.82892 
L 90.111232 238.864285 
L 90.124218 238.518705 
L 90.241096 239.123074 
L 90.254083 239.096438 
L 90.306028 239.197569 
L 90.507318 239.486196 
L 91.130667 240.173913 
L 91.15664 240.106105 
L 91.221573 239.478964 
L 91.267025 240.080363 
L 91.299491 240.378797 
L 91.35793 239.756933 
L 91.416369 235.76613 
L 91.448835 232.25846 
L 91.487795 240.524552 
L 91.520261 235.717935 
L 91.669605 240.747824 
L 91.676098 240.528922 
L 91.695578 239.567768 
L 91.779989 240.874199 
L 91.792976 240.783941 
L 91.812456 240.620139 
L 91.844922 240.963958 
L 91.890374 240.946542 
L 92.039718 241.213377 
L 92.072184 241.214104 
L 92.091664 241.154748 
L 92.14361 240.257649 
L 92.221529 236.595676 
L 92.247501 239.384039 
L 92.351393 241.528616 
L 92.364379 241.375486 
L 92.403339 240.666823 
L 92.448791 241.649823 
L 92.468271 241.521599 
L 92.50723 241.180664 
L 92.565669 241.683767 
L 92.604629 241.817221 
L 92.656574 241.550519 
L 92.695534 238.459961 
L 92.734493 195.675353 
L 92.740986 178.332186 
L 92.760466 236.116117 
L 92.831891 208.303338 
L 92.922796 240.950905 
L 92.942276 238.934097 
L 92.948769 231.053803 
L 93.020195 241.814011 
L 93.046168 239.751287 
L 93.163046 242.161506 
L 93.169539 241.89478 
L 93.260444 242.319465 
L 93.266937 242.260314 
L 93.403295 242.486017 
L 93.643544 242.743639 
L 94.929202 243.886061 
L 98.039454 246.40719 
L 98.065427 246.335663 
L 98.149839 244.9955 
L 98.188798 246.136461 
L 98.260224 246.076966 
L 98.31217 246.632887 
L 98.331649 246.684896 
L 98.377102 246.43848 
L 98.429048 244.265833 
L 98.468007 228.540892 
L 98.487487 201.871459 
L 98.513459 243.118656 
L 98.565405 242.667603 
L 98.578392 230.183087 
L 98.617351 246.305876 
L 98.65631 242.260611 
L 98.753709 246.852005 
L 98.67579 242.123479 
L 98.773188 246.673072 
L 98.890066 247.065512 
L 98.786175 246.172849 
L 98.909546 247.052708 
L 98.922532 247.0348 
L 99.045904 247.216462 
L 99.2407 247.389582 
L 101.363983 249.000878 
L 101.396449 248.857661 
L 101.461382 247.164254 
L 101.487355 246.591186 
L 101.526314 248.235964 
L 101.552287 249.165503 
L 101.643192 248.679556 
L 101.688644 249.274557 
L 101.753577 248.813221 
L 101.812016 246.216173 
L 101.870455 228.361069 
L 101.876948 225.145563 
L 101.909414 248.762114 
L 101.94188 239.729948 
L 101.993826 249.167243 
L 101.967853 237.416038 
L 102.058758 249.052169 
L 102.16265 249.548677 
L 102.078238 247.120419 
L 102.169143 249.466625 
L 102.182129 249.124194 
L 102.273034 249.664958 
L 102.286021 249.593122 
L 102.34446 249.72529 
L 102.370433 249.723929 
L 102.532763 249.866548 
L 103.253511 250.351361 
L 103.285977 250.227191 
L 103.396361 248.695115 
L 103.448307 249.71324 
L 103.49376 250.555177 
L 103.552199 249.84277 
L 103.604145 245.745721 
L 103.662584 221.095099 
L 103.688556 249.688245 
L 103.721022 244.082361 
L 103.740502 237.221261 
L 103.831407 250.325965 
L 103.844394 247.513978 
L 103.922312 250.767286 
L 103.941792 250.321913 
L 104.045684 250.928341 
L 104.05867 250.846208 
L 104.104123 250.95159 
L 104.24048 251.083509 
L 104.578128 251.330263 
L 105.20797 251.713121 
L 105.22745 251.671544 
L 105.285889 251.531893 
L 105.344328 251.649437 
L 105.376794 251.693691 
L 105.40926 251.595384 
L 105.454712 250.436848 
L 105.500165 242.30089 
L 105.539124 221.769167 
L 105.565097 251.614592 
L 105.597563 244.953811 
L 105.668989 251.887944 
L 105.623536 237.655995 
L 105.707948 249.330133 
L 105.714441 248.089839 
L 105.759894 252.039972 
L 105.805346 251.123407 
L 105.909238 252.191769 
L 105.922224 252.055062 
L 106.091048 252.318315 
L 106.318311 252.482416 
L 107.220868 253.045828 
L 107.246841 252.977418 
L 107.311774 252.151932 
L 107.383199 249.962719 
L 107.422158 252.118399 
L 107.448131 253.225082 
L 107.519557 251.53352 
L 107.532543 251.382629 
L 107.571502 252.194626 
L 107.616955 253.346219 
L 107.68838 252.642342 
L 107.753313 249.891323 
L 107.818245 229.404996 
L 107.824738 226.104993 
L 107.857204 252.304488 
L 107.88967 245.278768 
L 107.935123 253.244755 
L 107.915643 237.916178 
L 108.006548 252.779181 
L 108.019535 250.190372 
L 108.103947 253.51467 
L 108.116933 252.8963 
L 108.233811 253.705122 
L 108.240304 253.671618 
L 108.246797 253.628411 
L 108.331209 253.763767 
L 108.500033 253.887972 
L 109.214287 254.282493 
L 109.402591 254.181739 
L 109.454536 252.372657 
L 109.519469 241.855854 
L 109.551935 250.003015 
L 109.62336 254.515365 
L 109.590894 248.707929 
L 109.668813 253.725411 
L 109.733745 254.608645 
L 109.707772 253.091747 
L 109.785691 254.590552 
L 109.857116 254.695823 
L 109.818157 254.369148 
L 109.902569 254.652562 
L 110.04542 254.81486 
L 110.149311 254.742936 
L 110.253203 254.495 
L 110.305148 252.658123 
L 110.357094 238.105324 
L 110.38956 200.078465 
L 110.441506 251.553141 
L 110.460986 236.333869 
L 110.558384 254.506764 
L 110.480465 232.560255 
L 110.577864 253.936174 
L 110.59085 250.426776 
L 110.668769 254.882041 
L 110.681755 254.130592 
L 110.798633 255.117076 
L 110.81162 255.012418 
L 110.889538 255.197768 
L 110.902525 255.189027 
L 111.045376 255.3143 
L 111.779109 255.748597 
L 113.512799 256.607237 
L 113.519293 256.59081 
L 113.597211 256.019769 
L 113.629677 255.761356 
L 113.681623 256.265003 
L 113.830967 256.818299 
L 113.863433 256.712667 
L 113.895899 255.34803 
L 113.934859 239.13938 
L 113.960832 210.362793 
L 114.019271 255.381193 
L 114.03875 240.904887 
L 114.097189 256.490485 
L 114.05823 235.244421 
L 114.149135 255.650064 
L 114.155628 251.818973 
L 114.24004 256.821609 
L 114.253027 255.723852 
L 114.363411 256.977705 
L 114.369905 256.847828 
L 114.558208 257.12252 
L 114.954294 257.329324 
L 116.493188 258.002315 
L 116.512667 257.958732 
L 116.545134 257.911743 
L 116.597079 258.019242 
L 116.668505 258.106211 
L 116.700971 258.028528 
L 116.746423 257.091249 
L 116.791876 250.32406 
L 116.824342 240.05362 
L 116.856808 258.15829 
L 116.895767 252.424423 
L 116.999659 258.240501 
L 116.928234 252.089924 
L 117.012645 257.052863 
L 117.019139 256.477313 
L 117.090564 258.331153 
L 117.110044 257.896898 
L 117.356786 258.470783 
L 117.577556 258.585084 
L 117.642488 258.450857 
L 117.804818 257.601203 
L 117.856764 252.637756 
L 117.90871 239.863678 
L 117.934683 256.472599 
L 117.967149 248.098701 
L 118.045068 258.74776 
L 118.07104 255.009435 
L 118.135973 258.763978 
L 118.161945 257.660301 
L 118.29181 258.911642 
L 118.298303 258.874137 
L 118.31129 258.797716 
L 118.350249 258.946053 
L 118.395701 258.939348 
L 118.545046 259.036605 
L 118.772308 258.929399 
L 118.830747 257.547307 
L 118.915159 248.033589 
L 118.947625 256.013261 
L 119.025544 259.230626 
L 118.993078 253.76987 
L 119.05801 256.647418 
L 119.148915 259.314435 
L 119.194368 259.066783 
L 119.298259 259.393175 
L 119.317739 259.371772 
L 119.376178 259.297367 
L 119.428124 259.388314 
L 119.493056 259.444081 
L 119.519029 259.375469 
L 119.557988 258.559073 
L 119.603441 250.435702 
L 119.648893 191.408591 
L 119.655386 176.750486 
L 119.713825 256.013449 
L 119.726812 219.043438 
L 119.739798 216.687398 
L 119.837196 258.864802 
L 119.84369 245.487929 
L 119.934595 259.031155 
L 119.947581 257.185236 
L 120.051473 259.727799 
L 119.960568 256.859155 
L 120.064459 259.536539 
L 120.077446 259.355047 
L 120.200817 259.893408 
L 120.20731 259.857852 
L 120.285229 259.957501 
L 120.298215 259.958225 
L 120.480025 260.075482 
L 122.72668 260.972998 
L 125.0058 261.855225 
L 125.02528 261.771541 
L 125.090212 261.03919 
L 125.142158 261.711682 
L 125.181117 261.951999 
L 125.239556 261.630187 
L 125.291502 259.536608 
L 125.343448 254.42235 
L 125.375914 260.433942 
L 125.466819 262.038491 
L 125.42786 259.399971 
L 125.486299 261.555946 
L 125.505778 261.026232 
L 125.557724 262.099984 
L 125.59019 261.777219 
L 125.60967 261.678371 
L 125.661615 262.023166 
L 125.707068 262.164525 
L 125.765507 261.972733 
L 125.817453 260.25568 
L 125.882385 250.603034 
L 125.914851 260.110207 
L 125.999263 262.205066 
L 125.960304 255.564864 
L 126.018743 259.895303 
L 126.025236 259.60521 
L 126.057702 262.273677 
L 126.096661 261.289117 
L 126.200553 262.362145 
L 126.226526 262.230011 
L 126.239512 262.19883 
L 126.291458 262.402057 
L 126.317431 262.397368 
L 126.35639 262.313517 
L 126.473268 261.470429 
L 126.603132 260.246002 
L 126.648585 260.85754 
L 126.72001 262.584266 
L 126.778449 261.898875 
L 126.823902 255.770466 
L 126.882341 197.954646 
L 126.895327 258.624166 
L 126.94078 243.413853 
L 127.005712 261.137847 
L 126.953766 227.723638 
L 127.057658 254.947585 
L 127.168043 262.498386 
L 127.174536 261.57027 
L 127.330373 262.691642 
L 127.34336 262.670609 
L 127.356346 262.664006 
L 127.473224 262.795668 
L 127.596595 262.856237 
L 128.336822 263.150866 
L 130.58997 263.907488 
L 130.674382 263.222891 
L 130.732821 262.785388 
L 130.77178 263.232416 
L 130.908138 264.073823 
L 130.927618 264.060842 
L 130.960084 263.751324 
L 130.99255 260.297786 
L 131.050989 211.336998 
L 131.070468 261.827979 
L 131.115921 236.069459 
L 131.219812 263.673603 
L 131.232799 257.039642 
L 131.310718 264.023768 
L 131.349677 263.387967 
L 131.447075 264.186478 
L 131.369157 263.350357 
L 131.466555 264.149378 
L 131.479541 264.09543 
L 131.589926 264.275127 
L 131.674338 264.308228 
L 131.687324 264.319968 
L 132.492484 264.610483 
L 133.830087 264.963538 
L 133.869047 264.892051 
L 133.920992 265.028765 
L 134.024884 265.123619 
L 134.050857 265.070581 
L 134.089816 264.101532 
L 134.135269 253.143795 
L 134.174228 235.167278 
L 134.193708 264.198118 
L 134.226174 249.883251 
L 134.343052 264.828232 
L 134.356038 262.020991 
L 134.44045 265.218395 
L 134.453436 264.586256 
L 134.615767 265.308202 
L 134.635247 265.272705 
L 134.791084 265.373678 
L 135.304048 265.54177 
L 135.544298 265.533669 
L 135.58975 265.366403 
L 135.641696 263.995127 
L 135.713121 256.643442 
L 135.745587 263.729255 
L 135.829999 265.663547 
L 135.79104 262.47451 
L 135.855972 264.7323 
L 135.868959 264.518272 
L 135.914411 265.72984 
L 135.946877 265.327243 
L 135.95337 265.31841 
L 135.97285 265.472575 
L 136.018303 265.77631 
L 136.083235 265.557888 
L 136.148167 264.820201 
L 136.19362 261.11833 
L 136.265045 233.782452 
L 136.284525 264.740809 
L 136.316991 253.37433 
L 136.427376 265.774311 
L 136.342964 249.074904 
L 136.433869 264.130009 
L 136.440362 261.902442 
L 136.524774 265.85074 
L 136.53776 265.169446 
L 136.544254 265.10177 
L 136.55724 265.871288 
L 136.583213 265.657256 
L 136.693598 265.962019 
L 136.609186 265.637265 
L 136.700091 265.960557 
L 136.713077 265.914473 
L 136.803982 266.005758 
L 137.076698 266.102151 
L 137.641608 266.17356 
L 137.674074 266.135813 
L 137.739006 266.225509 
L 137.777965 266.213192 
L 137.797445 266.13276 
L 137.842898 265.066605 
L 137.901337 255.339418 
L 137.933803 247.3218 
L 137.966269 266.095576 
L 137.998735 257.530517 
L 138.10912 266.368507 
L 138.122106 265.227143 
L 138.128599 264.669274 
L 138.200025 266.419813 
L 138.219504 266.025802 
L 138.225998 266.009072 
L 138.232491 266.129278 
L 138.355862 266.493116 
L 138.47274 266.513708 
L 138.479233 266.520245 
L 138.700003 266.593829 
L 138.758442 266.483801 
L 138.823374 265.551484 
L 138.888306 259.75227 
L 138.914279 256.592196 
L 138.953238 265.713044 
L 139.031157 266.633305 
L 138.998691 262.604167 
L 139.05713 265.372732 
L 139.063623 265.196466 
L 139.102582 266.70953 
L 139.135049 266.180681 
L 139.141542 266.166777 
L 139.154528 266.334832 
L 139.186994 266.753395 
L 139.277899 266.650195 
L 139.349325 266.804964 
L 139.394777 266.685036 
L 139.433737 265.604557 
L 139.479189 255.401533 
L 139.524642 183.897489 
L 139.531135 169.583187 
L 139.596067 257.392153 
L 139.609054 227.879726 
L 139.706452 264.94134 
L 139.62204 214.292221 
L 139.738918 260.161808 
L 139.745411 255.08853 
L 139.810344 266.284638 
L 139.84281 265.313291 
L 139.849303 264.110832 
L 139.914235 266.574856 
L 139.946701 266.412155 
L 139.953194 266.191969 
L 140.018127 266.719329 
L 140.0441 266.670543 
L 140.167471 266.833655 
L 140.057086 266.659675 
L 140.173964 266.828096 
L 140.4272 266.95925 
L 141.394689 267.25407 
L 146.251619 268.484787 
L 146.264605 268.397122 
L 146.310058 266.915137 
L 146.368497 260.147462 
L 146.400963 268.111127 
L 146.472388 268.592677 
L 146.439922 265.625134 
L 146.498361 267.518715 
L 146.504854 267.461862 
L 146.524334 268.18394 
L 146.621732 268.656352 
L 146.641212 268.579271 
L 146.667185 268.511949 
L 146.725624 268.682467 
L 146.771076 268.69266 
L 146.803542 268.634711 
L 146.855488 268.040418 
L 146.907434 263.403854 
L 146.95938 250.605665 
L 146.991846 268.574282 
L 147.024312 259.205667 
L 147.14119 268.777582 
L 147.147683 268.53401 
L 147.167163 267.434536 
L 147.238588 268.827818 
L 147.258068 268.580304 
L 147.264561 268.528968 
L 147.297027 268.865276 
L 147.335986 268.812878 
L 147.426892 268.929093 
L 147.459358 268.91503 
L 147.712593 268.903409 
L 147.758046 268.693226 
L 147.809992 266.855517 
L 147.881417 255.754283 
L 147.90739 265.385965 
L 147.978815 269.073204 
L 147.946349 263.253726 
L 148.024268 268.481553 
L 148.095693 269.14029 
L 148.063227 267.962898 
L 148.141146 269.013687 
L 148.232051 269.211553 
L 148.186598 268.985797 
L 148.258024 269.153803 
L 148.277503 269.142451 
L 148.329449 269.239967 
L 148.394381 269.243437 
L 148.420354 269.186759 
L 148.478793 268.469202 
L 148.543725 263.695962 
L 148.589178 255.325761 
L 148.621644 266.770131 
L 148.69307 269.206672 
L 148.660603 262.407517 
L 148.732029 267.321744 
L 148.809948 269.367642 
L 148.848907 268.967844 
L 148.946305 269.427181 
L 148.972278 269.354218 
L 148.991758 269.33691 
L 149.043703 269.457379 
L 149.089156 269.438545 
L 149.108636 269.391146 
L 149.173568 268.745315 
L 149.244993 264.981162 
L 149.309926 249.737825 
L 149.335898 267.246352 
L 149.43979 269.458057 
L 149.368365 256.445322 
L 149.446283 268.559738 
L 149.45927 265.032095 
L 149.485243 269.497356 
L 149.556668 268.477042 
L 149.667053 269.619504 
L 149.673546 269.588787 
L 149.693026 269.450592 
L 149.777437 269.657763 
L 149.907302 269.692401 
L 150.141058 269.738964 
L 150.193004 269.579033 
L 150.251443 268.391205 
L 150.309882 260.407039 
L 150.361827 244.724231 
L 150.3878 269.485545 
L 150.420266 254.429577 
L 150.511171 269.615067 
L 150.537144 266.367875 
L 150.621556 269.830496 
L 150.654022 269.819519 
L 150.667009 269.502726 
L 150.673502 269.326145 
L 150.731941 269.897869 
L 150.757914 269.797668 
L 150.855312 269.939354 
L 150.874792 269.921013 
L 151.050109 269.998078 
L 151.543593 270.067756 
L 151.621512 269.497398 
L 151.712417 267.10719 
L 151.751377 265.866942 
L 151.790336 268.60535 
L 151.816309 270.172244 
L 151.907214 269.207554 
L 151.985133 270.237738 
L 152.043571 269.918737 
L 152.082531 267.881884 
L 152.12149 248.375949 
L 152.153956 161.472895 
L 152.199409 259.804674 
L 152.225382 201.038108 
L 152.329273 267.839924 
L 152.34226 266.064362 
L 152.348753 246.723523 
L 152.439658 268.195278 
L 152.446151 263.448687 
L 152.491604 269.649472 
L 152.563029 269.159026 
L 152.692894 270.056713 
L 152.699387 269.988689 
L 152.790292 270.17365 
L 152.796785 270.15313 
L 152.874704 270.232253 
L 152.881197 270.230208 
L 153.075994 270.335014 
L 153.85518 270.563394 
L 157.530343 271.30372 
L 160.20555 271.968163 
L 160.296455 271.942254 
L 160.309442 271.91236 
L 160.335414 271.874267 
L 160.38736 272.00095 
L 160.432813 272.017621 
L 160.465279 271.948448 
L 160.510731 271.284901 
L 160.58865 264.61504 
L 160.621116 269.888973 
L 160.712021 272.070617 
L 160.673062 269.598914 
L 160.737994 271.363145 
L 160.750981 271.216202 
L 160.796433 272.101058 
L 160.80942 272.048632 
L 160.848379 271.805424 
L 160.913311 272.115233 
L 160.95227 272.138146 
L 160.99123 272.06302 
L 161.036682 271.288666 
L 161.082135 264.416884 
L 161.127587 239.30919 
L 161.15356 271.927832 
L 161.186026 265.859118 
L 161.211999 260.554474 
L 161.296411 271.993291 
L 161.309398 269.447732 
L 161.393809 272.193007 
L 161.406796 271.65892 
L 161.413289 271.667434 
L 161.53666 272.248161 
L 161.549647 272.190734 
L 161.608086 272.274967 
L 161.640552 272.276172 
L 161.809376 272.329097 
L 162.471684 272.37086 
L 162.52363 271.9003 
L 162.582069 268.648339 
L 162.627521 264.509567 
L 162.659987 270.628568 
L 162.750893 272.530481 
L 162.711933 270.114671 
L 162.776865 271.867942 
L 162.789852 271.632985 
L 162.841798 272.565737 
L 162.861277 272.469442 
L 162.900237 272.250707 
L 162.965169 272.475058 
L 163.017115 272.551529 
L 163.056074 272.408015 
L 163.095033 271.133616 
L 163.140486 257.632979 
L 163.185938 212.565566 
L 163.231391 270.270992 
L 163.244377 240.675239 
L 163.322296 271.639502 
L 163.361255 267.576123 
L 163.380735 267.426898 
L 163.478133 272.507517 
L 163.484626 271.712607 
L 163.543065 272.610168 
L 163.582025 272.540627 
L 163.595011 272.504294 
L 163.698903 272.690556 
L 163.815781 272.7325 
L 164.757298 272.955927 
L 166.127367 273.13859 
L 166.224766 272.619819 
L 166.302684 272.764453 
L 166.33515 272.575199 
L 166.380603 270.338093 
L 166.439042 257.783733 
L 166.471508 272.602355 
L 166.478001 273.083796 
L 166.497481 266.850599 
L 166.503974 266.448321 
L 166.516961 270.059317 
L 166.55592 270.018598 
L 166.633839 273.308483 
L 166.659811 272.6155 
L 166.692278 273.34611 
L 166.73773 273.27756 
L 166.822142 273.386298 
L 166.776689 273.237013 
L 166.854608 273.339432 
L 167.068884 273.325214 
L 167.127323 272.91572 
L 167.185762 269.753402 
L 167.244201 258.831345 
L 167.276667 272.424349 
L 167.309134 267.622573 
L 167.393545 273.474335 
L 167.419518 272.24327 
L 167.50393 273.509948 
L 167.510423 273.522308 
L 167.529903 273.322888 
L 167.536396 273.294153 
L 167.575356 273.545915 
L 167.614315 273.452609 
L 167.796125 273.486359 
L 167.861057 273.30933 
L 167.913003 271.882412 
L 167.964949 261.356192 
L 168.010401 235.021887 
L 168.029881 271.031271 
L 168.062347 259.549606 
L 168.133773 273.424419 
L 168.08832 252.473483 
L 168.172732 268.898113 
L 168.179225 267.786052 
L 168.250651 273.596786 
L 168.263637 272.056911 
L 168.367529 273.673367 
L 168.393501 273.635975 
L 168.4909 273.716232 
L 168.412981 273.536698 
L 168.510379 273.689422 
L 168.646737 273.75398 
L 169.185674 273.880909 
L 169.737598 273.895199 
L 169.873956 272.970597 
L 169.945381 269.416821 
L 169.971354 267.52581 
L 170.010313 272.208276 
L 170.120698 274.072524 
L 170.068752 272.127541 
L 170.127191 273.986856 
L 170.159657 273.47612 
L 170.231083 274.112309 
L 170.244069 274.114628 
L 170.276535 274.006734 
L 170.328481 273.029 
L 170.373934 266.620842 
L 170.432373 235.900243 
L 170.458346 272.982575 
L 170.484318 252.370007 
L 170.58821 273.911296 
L 170.601196 268.907104 
L 170.705088 274.086548 
L 170.724568 273.714952 
L 170.821966 274.191822 
L 170.744047 273.649247 
L 170.841446 274.093613 
L 170.95183 274.22885 
L 170.958324 274.220342 
L 171.081695 274.259313 
L 171.581673 274.365665 
L 172.094637 274.373361 
L 172.256968 273.701252 
L 172.315407 269.164126 
L 172.360859 262.737612 
L 172.393325 273.59358 
L 172.458258 274.494721 
L 172.425791 270.083541 
L 172.50371 273.759028 
L 172.581629 274.558599 
L 172.620588 274.291986 
L 172.769932 274.619481 
L 172.821878 274.615686 
L 172.847851 274.559576 
L 172.893303 274.005821 
L 172.951742 269.406079 
L 173.029661 249.384459 
L 173.042647 264.278363 
L 173.133553 274.531621 
L 173.075114 257.139265 
L 173.153032 268.287922 
L 173.276403 274.658923 
L 173.295883 273.923123 
L 173.354322 274.717279 
L 173.380295 274.587624 
L 173.477693 274.754682 
L 173.497173 274.723489 
L 173.678983 274.802601 
L 174.159481 274.832704 
L 174.21792 274.443466 
L 174.276359 272.108849 
L 174.334798 265.891118 
L 174.367265 272.408003 
L 174.45817 274.921158 
L 174.41921 271.705802 
L 174.477649 273.997069 
L 174.490636 273.739131 
L 174.529595 274.959327 
L 174.568554 274.518417 
L 174.575048 274.510039 
L 174.588034 274.600385 
L 174.633487 274.991408 
L 174.704912 274.752833 
L 174.776337 273.873353 
L 174.834776 269.035341 
L 174.893215 239.773737 
L 174.919188 185.815102 
L 174.958148 267.203807 
L 175.0036 217.023236 
L 175.088012 273.64781 
L 175.120478 270.135838 
L 175.126971 259.611426 
L 175.22437 274.169109 
L 175.230863 271.132893 
L 175.341248 274.788842 
L 175.347741 274.375809 
L 175.464619 274.941062 
L 175.471112 274.876101 
L 175.56851 275.011479 
L 175.672402 275.056981 
L 175.97109 275.151782 
L 177.581409 275.459583 
L 181.542273 276.07289 
L 181.548767 276.027652 
L 181.600712 274.575648 
L 181.646165 271.948243 
L 181.691618 275.585794 
L 181.704604 276.168865 
L 181.750057 275.089171 
L 181.808496 276.144132 
L 181.821482 276.210128 
L 181.873428 275.877199 
L 181.944853 273.977349 
L 182.016279 265.413025 
L 182.048745 274.370713 
L 182.12017 276.210983 
L 182.087704 272.608448 
L 182.159129 274.969593 
L 182.263021 276.282129 
L 182.288994 276.098788 
L 182.30198 276.071189 
L 182.347433 276.287928 
L 182.366913 276.308379 
L 182.418858 276.20458 
L 182.496777 275.553067 
L 182.561709 271.913484 
L 182.607162 265.405881 
L 182.646121 275.096385 
L 182.717546 276.309105 
L 182.68508 272.561117 
L 182.750013 274.805558 
L 182.866891 276.392619 
L 182.957796 276.373485 
L 182.990262 276.419187 
L 183.048701 276.291862 
L 183.100646 275.449222 
L 183.152592 270.248247 
L 183.211031 249.092376 
L 183.237004 276.089166 
L 183.26947 266.499999 
L 183.360375 276.215115 
L 183.301936 265.540664 
L 183.386348 273.397814 
L 183.477253 276.452201 
L 183.503226 275.983557 
L 183.600624 276.507103 
L 183.620104 276.420331 
L 183.85386 276.560581 
L 184.223974 276.588109 
L 184.282413 276.391955 
L 184.347345 275.048715 
L 184.41877 270.624278 
L 184.45773 275.017356 
L 184.574608 276.68447 
L 184.626553 276.11632 
L 184.652526 276.036448 
L 184.704472 276.300754 
L 184.756418 276.475421 
L 184.795377 276.227457 
L 184.834336 273.780996 
L 184.879789 251.169475 
L 184.912255 199.180091 
L 184.951214 266.496195 
L 184.98368 224.290747 
L 185.094065 275.903893 
L 185.100558 258.315092 
L 185.191464 276.348183 
L 185.20445 274.684211 
L 185.217436 272.922016 
L 185.418726 276.671756 
L 185.425219 276.553059 
L 185.503138 276.718332 
L 185.522618 276.715347 
L 185.535604 276.734931 
L 185.626509 276.764419 
L 185.899225 276.84359 
L 187.879657 277.179296 
L 190.288642 277.414899 
L 190.334094 277.187481 
L 190.38604 277.447184 
L 190.509411 277.600801 
L 190.522398 277.59125 
L 190.554864 277.312398 
L 190.58733 274.398433 
L 190.645769 239.994527 
L 190.665249 274.687598 
L 190.697715 269.658332 
L 190.801606 277.472778 
L 190.723688 263.200199 
L 190.8081 275.293605 
L 190.814593 273.300261 
L 190.892511 277.547955 
L 190.911991 276.651272 
L 191.022376 277.651373 
L 191.028869 277.603686 
L 191.035362 277.526591 
L 191.126267 277.681146 
L 191.132761 277.672731 
L 191.223666 277.694572 
L 191.165227 277.689859 
L 191.236652 277.705137 
L 191.834028 277.814751 
L 192.10025 277.748903 
L 192.223622 277.190063 
L 192.282061 274.878503 
L 192.334006 271.117835 
L 192.366472 275.718157 
L 192.470364 277.897771 
L 192.48335 277.798301 
L 192.515817 277.257576 
L 192.587242 277.934441 
L 192.626201 277.831458 
L 192.68464 276.901705 
L 192.736586 271.173192 
L 192.788532 250.745762 
L 192.814505 277.131086 
L 192.846971 268.358373 
L 192.898917 277.729546 
L 192.963849 276.888301 
L 193.048261 277.973466 
L 192.989822 276.214179 
L 193.080727 277.935644 
L 193.165139 278.020133 
L 193.1067 277.719352 
L 193.197605 277.983819 
L 193.314483 278.05853 
L 193.320976 278.055625 
L 193.502786 278.098109 
L 193.83394 278.087103 
L 193.892379 277.610247 
L 193.970298 273.876709 
L 194.002764 272.178134 
L 194.041723 276.709924 
L 194.100162 276.64416 
L 194.158601 278.20292 
L 194.230027 277.64373 
L 194.314439 277.886535 
L 194.346905 277.746854 
L 194.385864 276.256968 
L 194.431317 263.434218 
L 194.476769 173.299853 
L 194.489756 266.05659 
L 194.535208 227.982426 
L 194.652086 276.869093 
L 194.658579 262.972453 
L 194.742991 277.458874 
L 194.762471 276.21491 
L 194.781951 275.296729 
L 194.82091 277.806162 
L 194.859869 277.248482 
L 194.976747 278.029634 
L 194.98324 277.966977 
L 195.067652 278.120696 
L 195.074146 278.1039 
L 195.22349 278.193518 
L 195.879305 278.36772 
L 198.320756 278.778264 
L 200.762207 279.045777 
L 200.827139 277.72495 
L 200.853112 277.328775 
L 200.898565 278.37175 
L 200.944017 279.176266 
L 201.008949 278.537651 
L 201.060895 275.472624 
L 201.112841 263.696965 
L 201.145307 277.919621 
L 201.255692 279.172584 
L 201.177773 272.862645 
L 201.262185 279.02567 
L 201.281665 277.751485 
L 201.366076 279.221224 
L 201.379063 279.136383 
L 201.398543 278.955078 
L 201.431009 279.242006 
L 201.482954 279.178845 
L 201.612819 279.252321 
L 201.71671 279.280376 
L 201.73619 279.248215 
L 201.781643 278.733671 
L 201.827095 274.682165 
L 201.879041 257.573294 
L 201.911507 279.208634 
L 201.943973 272.740544 
L 202.002412 279.268728 
L 202.060851 277.877543 
L 202.067344 277.672103 
L 202.086824 279.259164 
L 202.125783 279.046282 
L 202.236168 279.360465 
L 202.158249 278.912659 
L 202.242661 279.341966 
L 202.262141 279.269082 
L 202.294607 279.372203 
L 202.346553 279.375583 
L 202.508883 279.397426 
L 202.690694 279.268164 
L 202.749133 278.258183 
L 202.814065 271.690086 
L 202.840038 268.972028 
L 202.872504 277.727136 
L 202.950422 279.455799 
L 202.911463 276.063985 
L 202.982888 278.150978 
L 203.10626 279.494441 
L 203.138726 279.335615 
L 203.164699 279.287336 
L 203.223138 279.429809 
L 203.275083 279.48175 
L 203.314043 279.382711 
L 203.353002 278.49883 
L 203.398455 268.870736 
L 203.443907 226.21444 
L 203.463387 278.365885 
L 203.508839 250.25129 
L 203.612731 278.628242 
L 203.625717 274.095618 
L 203.742595 279.403914 
L 203.755582 278.563269 
L 203.8335 279.507855 
L 203.846487 279.307089 
L 203.950378 279.554567 
L 203.963365 279.526983 
L 204.086736 279.585427 
L 204.339972 279.6365 
L 206.255472 279.845206 
L 206.443775 278.722338 
L 206.508707 276.976624 
L 206.541173 275.785234 
L 206.580133 277.95133 
L 206.612599 279.967409 
L 206.697011 278.992708 
L 206.800902 280.008334 
L 206.859341 279.847422 
L 206.891807 278.560718 
L 206.930767 263.151009 
L 206.963233 226.798294 
L 207.015179 276.896155 
L 207.034658 260.017219 
L 207.11907 279.632965 
L 207.151536 276.044799 
L 207.33984 280.01112 
L 207.352826 279.821185 
L 207.443731 280.046803 
L 207.450224 280.023614 
L 207.541129 280.063851 
L 207.469704 280.05457 
L 207.547623 280.072201 
L 209.021584 280.304692 
L 209.300792 280.261566 
L 209.365724 279.737621 
L 209.482602 277.459574 
L 209.528055 278.87811 
L 209.573508 280.379017 
L 209.644933 279.269769 
L 209.709865 272.847168 
L 209.735838 268.684029 
L 209.781291 280.357721 
L 209.80077 276.830429 
L 209.807263 276.118633 
L 209.846223 280.384173 
L 209.885182 278.993672 
L 209.98258 280.43422 
L 210.008553 280.214399 
L 210.02154 280.173036 
L 210.073486 280.452604 
L 210.131925 280.335282 
L 210.235816 279.917152 
L 210.287762 277.87495 
L 210.352694 263.646474 
L 210.378667 276.673685 
L 210.489052 280.471623 
L 210.411133 273.223254 
L 210.495545 280.035174 
L 210.508531 278.781191 
L 210.592943 280.497644 
L 210.599436 280.386642 
L 210.612423 280.146038 
L 210.703328 280.526088 
L 210.735794 280.474018 
L 210.833192 280.525612 
L 211.047469 280.539817 
L 211.060455 280.474645 
L 211.105908 279.157746 
L 211.157853 268.035362 
L 211.196813 248.664491 
L 211.222786 280.399265 
L 211.255252 272.350503 
L 211.300704 280.397504 
L 211.281225 268.378828 
L 211.37213 280.15705 
L 211.385116 277.602811 
L 211.469528 280.591609 
L 211.482514 280.112591 
L 211.489008 280.029022 
L 211.540953 280.623524 
L 211.560433 280.435222 
L 211.690298 280.649163 
L 211.846135 280.683582 
L 212.462991 280.596184 
L 212.534416 279.888115 
L 212.612335 275.637464 
L 212.638308 273.912933 
L 212.677267 279.12706 
L 212.787652 280.794072 
L 212.735706 278.793925 
L 212.794145 280.712171 
L 212.833104 280.169393 
L 212.898037 280.798423 
L 212.917516 280.829952 
L 212.962969 280.690731 
L 213.008421 279.814857 
L 213.053874 272.826058 
L 213.099326 225.801913 
L 213.118806 165.895268 
L 213.144779 267.095556 
L 213.196725 203.546253 
L 213.313603 268.359434 
L 213.320096 258.461321 
L 213.352562 278.972006 
L 213.417494 275.708109 
L 213.475933 279.966661 
L 213.430481 275.451765 
L 213.540865 279.51456 
L 213.657743 280.406508 
L 213.664237 280.395845 
L 213.696703 280.520747 
L 213.703196 280.461916 
L 213.826567 280.642844 
L 214.07331 280.784334 
L 214.865482 280.981478 
L 217.053698 281.252933 
L 223.092393 281.838989 
L 223.137846 281.691007 
L 223.183298 281.885027 
L 223.261217 281.985879 
L 223.300176 281.932029 
L 223.339136 281.227651 
L 223.378095 274.244211 
L 223.410561 260.542653 
L 223.443027 281.362783 
L 223.475493 277.684701 
L 223.572892 281.978189 
L 223.507959 276.406273 
L 223.585878 280.844579 
L 223.592371 280.462957 
L 223.663797 282.002941 
L 223.683276 281.625659 
L 223.819634 282.044848 
L 223.83262 282.020939 
L 223.923525 282.046538 
L 223.878073 282.056298 
L 223.936512 282.05639 
L 224.150788 282.083633 
L 224.21572 281.908387 
L 224.300132 280.647147 
L 224.378051 277.195453 
L 224.410517 279.628549 
L 224.442983 282.113676 
L 224.533888 281.808474 
L 224.559861 282.145634 
L 224.631287 281.499018 
L 224.696219 278.219656 
L 224.748164 270.211255 
L 224.780631 279.888257 
L 224.852056 282.157773 
L 224.81959 277.81904 
L 224.891015 280.769661 
L 224.98192 282.193324 
L 225.014387 281.907767 
L 225.02088 281.904647 
L 225.033866 281.98809 
L 225.066332 282.21126 
L 225.157237 282.108908 
L 225.235156 282.172141 
L 225.267622 282.073641 
L 225.313075 281.155465 
L 225.358527 274.47693 
L 225.40398 252.453931 
L 225.429953 281.660857 
L 225.462419 275.715245 
L 225.540337 282.17291 
L 225.488392 271.585143 
L 225.579297 281.646869 
L 225.592283 280.084641 
L 225.676695 282.242808 
L 225.683188 282.172732 
L 225.696175 281.827057 
L 225.78708 282.28536 
L 225.942917 282.30942 
L 226.1507 282.35147 
L 226.592239 282.317262 
L 226.663665 281.957319 
L 226.748076 279.580085 
L 226.793529 277.908493 
L 226.832488 280.756978 
L 226.858461 282.428825 
L 226.949366 281.548665 
L 227.020792 282.46775 
L 227.079231 282.147895 
L 227.124683 279.148117 
L 227.183122 244.705592 
L 227.189616 241.500823 
L 227.209095 278.696278 
L 227.235068 262.298654 
L 227.33896 282.199689 
L 227.351946 277.739389 
L 227.455838 282.448373 
L 227.475317 281.977688 
L 227.579209 282.500337 
L 227.592195 282.398764 
L 227.709073 282.536792 
L 227.72206 282.527722 
L 228.241517 282.620973 
L 228.812921 282.597318 
L 228.903826 282.089047 
L 228.975251 279.892454 
L 229.014211 278.290435 
L 229.05317 280.930799 
L 229.085636 282.724343 
L 229.170048 281.873295 
L 229.241473 282.768109 
L 229.299912 282.48121 
L 229.345365 279.841163 
L 229.390817 258.468866 
L 229.410297 241.252222 
L 229.43627 280.803625 
L 229.488216 262.265486 
L 229.585614 282.63108 
L 229.611587 282.516451 
L 229.624573 280.077238 
L 229.695999 282.749819 
L 229.715478 282.273706 
L 229.812877 282.79475 
L 229.832356 282.748959 
L 229.929755 282.830113 
L 229.851836 282.741895 
L 229.949234 282.817027 
L 230.105072 282.861564 
L 231.312811 282.823292 
L 231.37125 281.874927 
L 231.449168 277.706351 
L 231.488128 281.195046 
L 231.514101 283.017628 
L 231.611499 282.931091 
L 231.624485 283.05158 
L 231.682924 282.528815 
L 231.773829 280.314339 
L 231.832268 276.705941 
L 231.864734 280.602385 
L 231.981612 283.088821 
L 231.988106 283.083994 
L 232.046545 282.487055 
L 232.111477 282.921246 
L 232.163423 283.065395 
L 232.208875 282.900626 
L 232.247834 281.261121 
L 232.286794 265.4696 
L 232.332246 182.996001 
L 232.416658 215.327232 
L 232.436138 276.70457 
L 232.533536 264.853274 
L 232.676387 280.741072 
L 232.68288 280.463783 
L 232.741319 282.138166 
L 232.747812 281.840243 
L 232.871184 282.835874 
L 232.877677 282.709695 
L 232.975075 282.938302 
L 232.981568 282.916519 
L 233.072474 282.994483 
L 234.955508 283.339413 
L 241.117574 283.82074 
L 241.176013 283.440334 
L 241.221466 283.78345 
L 241.305877 284.006055 
L 241.35133 283.945499 
L 241.390289 283.180454 
L 241.429249 275.055242 
L 241.461715 253.103685 
L 241.526647 282.974412 
L 241.546127 272.706555 
L 241.598072 283.910101 
L 241.630539 283.872989 
L 241.650018 281.476728 
L 241.73443 284.009321 
L 241.740923 283.842903 
L 241.75391 283.519614 
L 241.844815 284.040449 
L 241.864294 283.952569 
L 241.922733 284.056401 
L 241.9552 284.05192 
L 242.104544 284.083348 
L 242.669454 284.086629 
L 242.766852 283.860306 
L 242.831784 282.781653 
L 242.909703 278.63854 
L 242.942169 281.798385 
L 242.968142 284.168204 
L 243.06554 284.030151 
L 243.08502 284.193314 
L 243.143459 283.621109 
L 243.227871 281.082622 
L 243.273323 278.651014 
L 243.312283 281.865587 
L 243.338256 284.212914 
L 243.435654 284.040816 
L 243.455134 284.236747 
L 243.520066 283.564035 
L 243.597984 280.836696 
L 243.656423 276.738804 
L 243.688889 282.272365 
L 243.792781 284.257256 
L 243.740835 281.959775 
L 243.805767 283.9734 
L 243.83174 283.502616 
L 243.896673 284.288318 
L 243.903166 284.277042 
L 243.987578 283.578017 
L 244.059003 280.574746 
L 244.123935 272.250427 
L 244.149908 281.174532 
L 244.221334 284.276814 
L 244.188867 279.889729 
L 244.266786 283.374339 
L 244.351198 284.331254 
L 244.383664 284.047893 
L 244.390157 284.045645 
L 244.403144 284.131699 
L 244.43561 284.348341 
L 244.526515 284.259917 
L 244.610927 284.348326 
L 244.649886 284.268411 
L 244.695339 283.348261 
L 244.740791 275.245643 
L 244.792737 234.172444 
L 244.812217 283.65829 
L 244.83819 272.056514 
L 244.857669 260.072396 
L 244.948574 284.166099 
L 244.961561 278.375944 
L 245.052466 284.17786 
L 245.058959 283.253153 
L 245.065452 283.265159 
L 245.18233 284.385029 
L 245.195317 284.25955 
L 245.286222 284.428073 
L 245.532964 284.474884 
L 246.980952 284.501985 
L 247.052378 283.476796 
L 247.130296 280.883373 
L 247.169256 283.241446 
L 247.201722 284.660424 
L 247.279641 283.282057 
L 247.292627 283.251574 
L 247.325093 283.520827 
L 247.435478 284.579944 
L 247.48093 284.265931 
L 247.51989 281.415311 
L 247.578329 245.402407 
L 247.604302 284.33816 
L 247.630274 269.800113 
L 247.727673 284.427264 
L 247.656247 266.919573 
L 247.740659 279.386661 
L 247.870524 284.658569 
L 247.877017 284.527816 
L 247.88351 284.156994 
L 247.961429 284.71657 
L 247.980908 284.604041 
L 248.091293 284.742377 
L 248.097786 284.73209 
L 248.221158 284.761633 
L 248.766588 284.82708 
L 249.286046 284.781231 
L 249.363964 284.503489 
L 249.43539 282.838728 
L 249.493829 280.553894 
L 249.532788 283.126552 
L 249.565254 284.892829 
L 249.649666 283.815563 
L 249.727585 284.928265 
L 249.792517 284.533564 
L 249.83797 280.951337 
L 249.889915 245.978893 
L 249.902902 234.851001 
L 249.928875 279.787413 
L 249.948354 255.728934 
L 250.032766 284.529247 
L 250.065232 279.175897 
L 250.273015 284.914164 
L 250.279509 284.774185 
L 250.286002 284.706848 
L 250.370414 284.942911 
L 250.493785 284.96558 
L 250.675595 285.000139 
L 252.331366 285.09034 
L 252.441751 284.801327 
L 252.513177 283.242488 
L 252.558629 281.778903 
L 252.604082 283.644029 
L 252.643041 285.208173 
L 252.714466 283.844746 
L 252.766412 283.358978 
L 252.818358 283.837132 
L 252.935236 285.197914 
L 252.980688 285.011366 
L 253.019648 282.914585 
L 253.058607 262.317097 
L 253.097566 185.969559 
L 253.143019 272.790033 
L 253.156005 229.930443 
L 253.240417 283.240214 
L 253.168992 228.435536 
L 253.272883 275.595538 
L 253.279377 266.842599 
L 253.344309 284.39925 
L 253.376775 282.74917 
L 253.383268 280.862897 
L 253.4482 284.84742 
L 253.480666 284.523645 
L 253.48716 284.198967 
L 253.552092 285.02072 
L 253.578065 284.922247 
L 253.591051 284.896201 
L 253.701436 285.130611 
L 253.727409 285.129415 
L 253.733902 285.151384 
L 253.798834 285.17629 
L 259.421963 285.882159 
L 259.863502 285.702099 
L 259.908955 283.570586 
L 259.960901 279.0035 
L 259.99986 285.489644 
L 260.090765 285.943968 
L 260.045313 283.878105 
L 260.110245 285.588573 
L 260.136218 285.240624 
L 260.20115 285.961405 
L 260.259589 285.610291 
L 260.331014 283.606364 
L 260.389453 280.258765 
L 260.428413 284.407193 
L 260.551784 285.988912 
L 260.558277 285.991524 
L 260.571263 285.888273 
L 260.76606 282.261715 
L 260.792033 281.406561 
L 260.830992 283.913189 
L 260.863458 286.018581 
L 260.94787 284.977404 
L 261.019296 286.047302 
L 261.077735 285.636445 
L 261.123187 282.177692 
L 261.188119 249.263134 
L 261.207599 285.250376 
L 261.233572 273.010835 
L 261.272531 285.7707 
L 261.259545 270.806701 
L 261.343957 282.485984 
L 261.35045 281.794613 
L 261.363436 285.960894 
L 261.421875 285.935887 
L 261.441355 285.026884 
L 261.519274 286.04739 
L 261.53226 285.816498 
L 261.649138 286.094186 
L 261.655631 286.08279 
L 261.668618 286.068256 
L 261.681604 286.099082 
L 261.759523 286.111679 
L 262.045225 286.147248 
L 262.707533 286.119197 
L 262.804931 285.950625 
L 262.86337 284.909635 
L 262.947782 279.026935 
L 262.980248 284.475543 
L 263.077647 286.242222 
L 263.032194 284.187207 
L 263.097126 285.877164 
L 263.116606 285.560784 
L 263.181538 286.260289 
L 263.188031 286.253802 
L 263.26595 285.692061 
L 263.337376 283.221238 
L 263.395815 278.665366 
L 263.428281 283.757203 
L 263.532172 286.267666 
L 263.545159 285.96282 
L 263.571131 285.526723 
L 263.62957 286.303677 
L 263.642557 286.274973 
L 263.752942 285.15632 
L 263.83086 281.182329 
L 263.863326 279.19183 
L 263.895793 284.011756 
L 263.999684 286.331714 
L 264.012671 286.1665 
L 264.045137 285.622148 
L 264.116562 286.35284 
L 264.168508 286.071418 
L 264.23344 284.098553 
L 264.311359 270.384357 
L 264.337332 282.593082 
L 264.447716 286.342067 
L 264.369798 279.397895 
L 264.45421 286.066409 
L 264.473689 284.571994 
L 264.551608 286.377633 
L 264.558101 286.353757 
L 264.577581 286.014768 
L 264.610047 286.394203 
L 264.661993 286.343859 
L 264.772377 286.418689 
L 264.785364 286.413861 
L 264.973667 286.213612 
L 265.032106 284.827702 
L 265.097038 274.76171 
L 265.123011 268.957006 
L 265.148984 283.780678 
L 265.207423 286.378733 
L 265.18145 278.738538 
L 265.259369 286.22201 
L 265.278849 284.477676 
L 265.356767 286.437588 
L 265.369754 286.107576 
L 265.376247 286.006316 
L 265.408713 286.470696 
L 265.454166 286.409097 
L 265.545071 286.490419 
L 265.499618 286.394732 
L 265.571043 286.462197 
L 265.798306 286.20968 
L 265.869732 284.90198 
L 265.954144 280.4872 
L 265.98661 284.352185 
L 266.103488 286.538762 
L 266.109981 286.529574 
L 266.181406 285.788555 
L 266.252832 286.196626 
L 266.291791 286.305396 
L 266.33075 286.021627 
L 266.376203 282.808765 
L 266.415162 258.344715 
L 266.441135 206.357077 
L 266.460615 277.080597 
L 266.512561 231.492912 
L 266.519054 283.625724 
L 266.622945 269.361161 
L 266.759303 286.131164 
L 266.765796 283.353737 
L 266.837222 286.343417 
L 266.869688 286.332301 
L 266.876181 285.878376 
L 266.947606 286.448466 
L 266.973579 286.37939 
L 267.090457 286.51379 
L 267.200842 286.544599 
L 267.557969 286.611847 
L 269.765664 286.827907 
L 272.3175 286.931785 
L 272.388925 286.533408 
L 272.447364 286.802596 
L 272.492817 286.93084 
L 272.538269 286.709553 
L 272.583722 283.865886 
L 272.635668 273.361499 
L 272.668134 286.924035 
L 272.7006 281.619983 
L 272.785012 287.062522 
L 272.836958 287.03687 
L 272.908383 287.095805 
L 272.869424 286.578348 
L 272.927863 286.923578 
L 272.940849 286.892566 
L 272.979808 287.11355 
L 273.018768 287.027758 
L 273.038247 287.031286 
L 273.077207 287.108251 
L 273.0837 287.116537 
L 273.155125 287.111156 
L 273.174605 287.064903 
L 273.226551 286.407847 
L 273.297976 281.063319 
L 273.317456 279.907312 
L 273.356415 285.866625 
L 273.453814 287.142117 
L 273.408361 285.256162 
L 273.473293 286.892143 
L 273.499266 286.509448 
L 273.570691 287.166919 
L 273.583678 287.164168 
L 273.609651 287.074157 
L 273.66809 286.125221 
L 273.733022 278.547591 
L 273.765488 273.661166 
L 273.797954 286.975447 
L 273.823927 281.956933 
L 273.83042 281.995453 
L 273.973271 287.199331 
L 273.999244 286.755005 
L 274.038203 287.210709 
L 274.090149 287.10024 
L 274.122615 287.222047 
L 274.21352 287.174286 
L 274.304425 287.227397 
L 274.336892 287.166594 
L 274.382344 286.471411 
L 274.43429 279.798821 
L 274.486236 256.01795 
L 274.512208 286.820087 
L 274.538181 274.719825 
L 274.583634 287.065308 
L 274.655059 286.906331 
L 274.668046 284.332843 
L 274.752458 287.232958 
L 274.765444 286.757318 
L 274.771937 286.667392 
L 274.823883 287.265882 
L 274.843363 287.074438 
L 274.940761 287.288524 
L 274.966734 287.27093 
L 275.096598 287.305935 
L 275.655015 287.345138 
L 275.771893 287.188279 
L 275.843319 286.59517 
L 275.94721 283.422122 
L 275.98617 285.739867 
L 276.018636 287.392967 
L 276.096554 285.849475 
L 276.109541 285.81175 
L 276.142007 286.193139 
L 276.304337 287.428925 
L 276.36927 287.366639 
L 276.401736 286.386009 
L 276.434202 273.705402 
L 276.473161 181.598259 
L 276.544587 222.178092 
L 276.55108 279.861127 
L 276.661465 277.516804 
L 276.667958 270.088866 
L 276.75237 286.194065 
L 276.758863 281.005268 
L 276.869248 286.894386 
L 276.875741 286.09808 
L 276.992619 287.103848 
L 276.999112 287.065342 
L 277.083524 287.229675 
L 277.090017 287.204195 
L 277.180922 287.28481 
L 277.538049 287.403867 
L 278.654883 287.559213 
L 285.083172 288.051787 
L 285.154597 287.783231 
L 285.213036 287.996237 
L 285.271475 288.088347 
L 285.310435 287.988313 
L 285.349394 286.956027 
L 285.420819 272.204592 
L 285.446792 286.372336 
L 285.479258 281.45994 
L 285.557177 288.111557 
L 285.58315 286.654383 
L 285.661069 288.145236 
L 285.667562 288.113814 
L 285.687041 287.835283 
L 285.719508 288.154974 
L 285.771453 288.100666 
L 285.894825 288.180418 
L 286.005209 288.067691 
L 286.076635 287.655237 
L 286.16754 285.14576 
L 286.200006 284.140299 
L 286.238965 286.384503 
L 286.271431 288.204685 
L 286.34935 286.724866 
L 286.355843 286.719626 
L 286.375323 286.839575 
L 286.524667 288.229662 
L 286.570119 288.108196 
L 286.602586 286.911068 
L 286.641545 271.873348 
L 286.674011 241.304068 
L 286.693491 287.165676 
L 286.738943 266.975386 
L 286.803875 287.86827 
L 286.855821 287.794001 
L 286.868808 285.00459 
L 286.95322 288.116476 
L 286.966206 287.49074 
L 287.089577 288.239045 
L 287.09607 288.177838 
L 287.102564 288.160197 
L 287.11555 288.250651 
L 287.186975 288.242413 
L 287.31684 288.284398 
L 288.823267 288.215354 
L 288.966118 287.086118 
L 289.05053 285.98162 
L 289.082996 286.670112 
L 289.167408 288.460789 
L 289.225847 288.094178 
L 289.264806 285.494043 
L 289.323245 262.049963 
L 289.349218 287.48466 
L 289.381684 279.431106 
L 289.466096 288.217397 
L 289.498562 287.606973 
L 289.582974 288.468051 
L 289.524535 286.902037 
L 289.61544 288.401663 
L 289.706345 288.498481 
L 289.641413 288.224788 
L 289.725825 288.42842 
L 289.888155 288.515477 
L 290.212816 288.547584 
L 290.388133 288.383901 
L 290.446572 287.811893 
L 290.543971 283.552568 
L 290.58293 286.82532 
L 290.608903 288.574954 
L 290.699808 288.102461 
L 290.732274 288.597886 
L 290.797206 287.934012 
L 290.862138 283.968082 
L 290.907591 276.3704 
L 290.940057 286.884218 
L 291.004989 288.513796 
L 290.979016 284.164518 
L 291.050442 287.636572 
L 291.134854 288.632705 
L 291.16732 288.3131 
L 291.336144 288.667829 
L 291.407569 288.592691 
L 291.453021 287.904099 
L 291.51146 281.76875 
L 291.543927 276.248741 
L 291.582886 288.471522 
L 291.608859 284.305168 
L 291.615352 284.11719 
L 291.628338 286.283704 
L 291.706257 288.672478 
L 291.745216 288.115648 
L 291.842615 288.708471 
L 291.868588 288.623322 
L 291.888067 288.571776 
L 291.952999 288.717494 
L 292.004945 288.710562 
L 292.030918 288.653138 
L 292.082864 287.943319 
L 292.147796 281.520874 
L 292.186755 274.561409 
L 292.225715 288.574145 
L 292.251688 282.299122 
L 292.388045 288.741849 
L 292.394539 288.686513 
L 292.414018 288.161681 
L 292.452977 288.752687 
L 292.504923 288.69532 
L 292.621801 288.782114 
L 292.556869 288.668853 
L 292.628294 288.780107 
L 292.732186 288.592875 
L 292.810105 287.754058 
L 292.90101 283.477403 
L 292.939969 286.879992 
L 292.965942 288.787809 
L 293.06334 288.705369 
L 293.076327 288.817087 
L 293.134766 288.210958 
L 293.219178 285.623051 
L 293.277617 282.283208 
L 293.310083 286.838191 
L 293.420467 288.839285 
L 293.368522 286.674507 
L 293.426961 288.818613 
L 293.478906 288.056997 
L 293.537345 288.736693 
L 293.569811 288.864992 
L 293.62825 288.611827 
L 293.673703 286.23086 
L 293.712662 266.173495 
L 293.751622 171.50537 
L 293.82954 192.20225 
L 293.881486 280.966761 
L 293.946418 276.50118 
L 293.952911 247.293578 
L 294.024337 285.282326 
L 294.05031 274.083583 
L 294.154201 287.454923 
L 294.167188 286.280843 
L 294.180174 285.818226 
L 294.284066 288.063163 
L 294.290559 287.788365 
L 294.381464 288.240146 
L 294.387957 288.181759 
L 294.517822 288.394512 
L 294.719112 288.544976 
L 295.245062 288.735385 
L 296.472281 288.913761 
L 302.218782 289.303659 
L 307.160123 289.561707 
L 307.205575 289.329116 
L 307.264014 289.612243 
L 307.328946 289.690971 
L 307.367906 289.623531 
L 307.406865 288.944479 
L 307.452317 281.706195 
L 307.471797 275.910268 
L 307.510756 289.638438 
L 307.543223 284.99184 
L 307.666594 289.700164 
L 307.692567 289.128187 
L 307.725033 289.715174 
L 307.776979 289.681622 
L 307.867884 289.736205 
L 307.822431 289.621905 
L 307.887363 289.71488 
L 307.932816 289.691497 
L 307.997748 289.743803 
L 308.088653 289.683732 
L 308.134106 289.164376 
L 308.199038 284.430473 
L 308.225011 281.982705 
L 308.270463 289.477526 
L 308.354875 289.767734 
L 308.309423 287.422996 
L 308.374355 289.287341 
L 308.393834 288.958602 
L 308.44578 289.782229 
L 308.471753 289.649566 
L 308.686029 287.393168 
L 308.757455 275.65795 
L 308.783428 287.079684 
L 308.84836 289.78411 
L 308.815894 284.092284 
L 308.900306 289.773774 
L 308.926279 288.584318 
L 308.958745 289.816768 
L 309.01069 289.739219 
L 309.095102 289.836823 
L 309.04965 289.600549 
L 309.121075 289.756087 
L 309.134062 289.743398 
L 309.186007 289.846262 
L 309.192501 289.849933 
L 309.276913 289.752569 
L 309.361324 289.239566 
L 309.43275 287.008258 
L 309.478202 284.212541 
L 309.517162 287.938764 
L 309.640533 289.855094 
L 309.647026 289.884289 
L 309.679492 289.562696 
L 309.880782 287.282633 
L 309.913248 287.753139 
L 309.991167 289.915205 
L 310.056099 288.963774 
L 310.095058 283.60154 
L 310.147004 237.340353 
L 310.192457 288.232068 
L 310.211936 276.422717 
L 310.289855 289.634007 
L 310.231416 270.467956 
L 310.322321 284.714824 
L 310.406733 289.826759 
L 310.452185 289.80218 
L 310.465172 289.285225 
L 310.549584 289.898982 
L 310.56257 289.784418 
L 310.679448 289.935568 
L 310.685941 289.924092 
L 311.89368 290.073222 
L 312.666374 290.035748 
L 312.731306 289.635744 
L 312.828704 287.576318 
L 312.874157 288.989682 
L 312.919609 290.160151 
L 312.984542 289.089373 
L 313.068953 280.853579 
L 313.094926 287.318068 
L 313.179338 290.165537 
L 313.140379 286.93505 
L 313.205311 288.98064 
L 313.211804 288.934356 
L 313.224791 289.367939 
L 313.335176 290.196518 
L 313.348162 290.174562 
L 313.406601 289.98415 
L 313.471533 290.095228 
L 313.497506 290.099457 
L 313.523479 290.026388 
L 313.568931 289.210319 
L 313.620877 282.068005 
L 313.659837 268.724654 
L 313.692303 289.887109 
L 313.718276 280.989137 
L 313.776715 290.175113 
L 313.835154 288.339633 
L 313.990991 290.245312 
L 313.997484 290.202807 
L 314.01047 290.110582 
L 314.088389 290.260171 
L 314.101376 290.24968 
L 314.192281 290.259985 
L 314.21176 290.273142 
L 314.458503 290.251945 
L 314.61434 289.914938 
L 314.679272 288.22988 
L 314.737711 284.226547 
L 314.776671 288.766262 
L 314.887055 290.319983 
L 314.83511 288.51969 
L 314.893548 290.312298 
L 314.945494 289.684519 
L 315.010426 290.14688 
L 315.088345 290.338021 
L 315.127304 290.255581 
L 315.166264 289.138273 
L 315.205223 277.446294 
L 315.244182 221.217681 
L 315.263662 287.650567 
L 315.302621 264.740583 
L 315.387033 288.59367 
L 315.315608 256.399888 
L 315.419499 287.237013 
L 315.432486 283.89871 
L 315.536377 290.166674 
L 315.542871 289.351206 
L 315.633776 290.261004 
L 315.646762 290.129806 
L 315.750654 290.321182 
L 315.659749 290.12037 
L 315.76364 290.296569 
L 315.887011 290.353236 
L 316.218166 290.40401 
L 318.308983 290.579043 
L 319.094662 290.547414 
L 319.218034 289.740532 
L 319.282966 290.25524 
L 319.341405 290.507441 
L 319.380364 290.285435 
L 319.419323 288.365262 
L 319.477762 275.610435 
L 319.510228 290.590662 
L 319.542695 285.41576 
L 319.666066 290.65981 
L 319.692039 290.016067 
L 319.724505 290.678767 
L 319.776451 290.645187 
L 319.860862 290.698182 
L 319.81541 290.566882 
L 319.886835 290.664728 
L 319.919301 290.64739 
L 319.984234 290.709749 
L 320.075139 290.644474 
L 320.127084 290.006563 
L 320.205003 284.8564 
L 320.21799 284.417261 
L 320.243962 287.206329 
L 320.36084 290.728696 
L 320.367334 290.705207 
L 320.412786 290.089631 
L 320.477718 290.673486 
L 320.510184 290.75104 
L 320.56213 290.579584 
L 320.607583 288.794102 
L 320.659529 270.864302 
L 320.679008 259.601763 
L 320.704981 290.546867 
L 320.756927 279.744117 
L 320.912764 290.74254 
L 320.919257 290.419488 
L 320.925751 289.970392 
L 321.016656 290.769815 
L 321.023149 290.736225 
L 321.036135 290.611739 
L 321.094574 290.785274 
L 321.12704 290.783494 
L 321.282878 290.80539 
L 321.951679 290.678361 
L 322.049078 290.076552 
L 322.152969 287.530426 
L 322.191929 289.121418 
L 322.230888 290.885731 
L 322.302313 289.38094 
L 322.354259 288.762972 
L 322.393218 289.569126 
L 322.464644 290.908568 
L 322.523083 290.342461 
L 322.568535 285.561376 
L 322.633468 238.942088 
L 322.672427 268.527881 
L 322.776319 290.455013 
L 322.691907 263.634434 
L 322.782812 284.970461 
L 322.789305 283.918169 
L 322.821771 290.71728 
L 322.86073 289.135854 
L 322.938649 290.824721 
L 322.88021 289.026759 
L 322.977608 290.629817 
L 323.0815 290.906603 
L 322.997088 290.598815 
L 323.094486 290.851743 
L 323.204871 290.930979 
L 323.211364 290.928866 
L 323.380188 290.953039 
L 325.21777 291.038166 
L 325.347634 290.655394 
L 325.412566 289.617191 
L 325.471005 287.71725 
L 325.509964 289.935888 
L 325.535937 291.116847 
L 325.613856 289.769804 
L 325.626842 289.752869 
L 325.646322 289.929188 
L 325.828132 291.155429 
L 325.834625 291.154301 
L 325.873585 291.049242 
L 325.906051 289.66579 
L 325.94501 268.322478 
L 325.977476 202.660079 
L 326.048902 281.334012 
L 326.055395 246.406474 
L 326.113834 289.052595 
L 326.178766 282.958456 
L 326.198246 280.851345 
L 326.204739 290.077113 
L 326.243698 285.842707 
L 326.32811 290.721131 
L 326.360576 290.65632 
L 326.36707 290.18794 
L 326.464468 290.952781 
L 326.470961 290.883149 
L 326.561866 291.022165 
L 326.568359 291.001753 
L 326.691731 291.071315 
L 327.217682 291.16724 
L 329.626666 291.350967 
L 332.249928 291.465441 
L 332.31486 290.958414 
L 332.353819 290.599402 
L 332.405765 291.08728 
L 332.503163 291.537188 
L 332.542123 291.48519 
L 332.581082 290.698987 
L 332.620041 281.443736 
L 332.652507 264.455629 
L 332.67848 291.384991 
L 332.710946 287.373733 
L 332.736919 283.06492 
L 332.827824 291.452433 
L 332.840811 289.827639 
L 332.89925 291.536866 
L 332.938209 291.53514 
L 332.951195 291.248133 
L 333.016128 291.563407 
L 333.048594 291.547265 
L 333.152485 291.580478 
L 333.074567 291.52245 
L 333.165472 291.570966 
L 333.801807 291.370755 
L 333.879726 290.367594 
L 333.951151 288.660296 
L 333.990111 290.355843 
L 334.02907 291.642051 
L 334.094002 290.352883 
L 334.171921 287.077735 
L 334.21088 290.146693 
L 334.236853 291.64682 
L 334.327758 291.11758 
L 334.366718 291.672429 
L 334.43165 291.024546 
L 334.483596 287.465916 
L 334.529048 276.493338 
L 334.568007 291.614985 
L 334.59398 285.569244 
L 334.723845 291.682712 
L 334.730338 291.548323 
L 334.749818 291.064539 
L 334.782284 291.685901 
L 334.834229 291.677319 
L 334.918641 291.713324 
L 334.873189 291.585608 
L 334.944614 291.681549 
L 334.97708 291.666579 
L 335.048506 291.724119 
L 335.17837 291.655234 
L 335.223823 290.747321 
L 335.282262 280.798785 
L 335.308235 276.260085 
L 335.340701 291.659808 
L 335.366674 285.316361 
L 335.496538 291.719811 
L 335.503031 291.526456 
L 335.516018 291.09546 
L 335.606923 291.751357 
L 335.613416 291.754567 
L 335.632896 291.653385 
L 335.645882 291.638194 
L 335.684841 291.766086 
L 335.723801 291.715606 
L 335.912104 291.580701 
L 335.977036 290.332409 
L 336.041969 287.56153 
L 336.080928 290.118076 
L 336.106901 291.776565 
L 336.197806 290.765554 
L 336.269231 291.805371 
L 336.32767 291.300935 
L 336.373123 287.250335 
L 336.425069 265.21627 
L 336.457535 291.512623 
L 336.483508 280.555318 
L 336.496494 291.680366 
L 336.600386 290.835999 
L 336.626358 290.03294 
L 336.717264 291.807331 
L 336.736743 291.50135 
L 336.801675 291.826769 
L 336.827648 291.777077 
L 336.938033 291.847179 
L 336.944526 291.843571 
L 337.11335 291.86195 
L 337.483464 291.817965 
L 337.567875 291.580947 
L 337.645794 290.375148 
L 337.710726 288.774353 
L 337.749686 290.491419 
L 337.788645 291.903086 
L 337.853577 290.557245 
L 337.937989 287.206777 
L 337.970455 289.805563 
L 337.996428 291.90384 
L 338.093826 291.343603 
L 338.126292 291.927736 
L 338.191225 291.106522 
L 338.26265 286.310422 
L 338.295116 283.469287 
L 338.327582 290.464146 
L 338.411994 291.923008 
L 338.373035 289.051093 
L 338.437967 290.896972 
L 338.44446 290.829789 
L 338.470433 291.610092 
L 338.489913 291.947761 
L 338.528872 291.532841 
L 338.587311 291.937319 
L 338.606791 291.960198 
L 338.652243 291.79967 
L 338.710682 290.697078 
L 338.782108 283.010173 
L 338.808081 279.345403 
L 338.834053 289.731983 
L 338.898986 291.934224 
L 338.873013 286.82531 
L 338.950931 291.8884 
L 338.957425 291.928558 
L 338.963918 291.608914 
L 338.983398 290.908537 
L 339.00937 291.968104 
L 339.067809 291.960044 
L 339.152221 291.997302 
L 339.106769 291.792967 
L 339.171701 291.947653 
L 339.197674 291.918397 
L 339.256113 292.008219 
L 339.262606 292.010185 
L 339.340525 291.919583 
L 339.398964 291.230852 
L 339.483376 286.573202 
L 339.496362 285.93898 
L 339.535321 290.65138 
L 339.639213 292.024459 
L 339.587267 290.126735 
L 339.652199 291.906436 
L 339.691159 291.364141 
L 339.756091 292.007347 
L 339.77557 292.045508 
L 339.821023 291.89207 
L 339.866476 290.750462 
L 339.918421 279.244271 
L 339.963874 200.682922 
L 340.028806 244.306294 
L 340.126204 290.275567 
L 340.041793 242.676241 
L 340.145684 279.853326 
L 340.275548 291.551957 
L 340.165164 278.997218 
L 340.308015 291.229223 
L 340.314508 290.416024 
L 340.411906 291.779209 
L 340.418399 291.547859 
L 340.515798 291.883529 
L 340.522291 291.848656 
L 340.606703 291.926477 
L 340.619689 291.926898 
L 340.814486 291.98998 
L 342.67804 292.182387 
L 346.444108 292.361782 
L 346.489561 292.280381 
L 346.541507 292.39194 
L 346.619425 292.428766 
L 346.645398 292.381451 
L 346.690851 291.676358 
L 346.755783 287.445211 
L 346.794742 291.786753 
L 346.905127 292.452378 
L 346.846688 290.931601 
L 346.91162 292.424854 
L 346.976552 291.841249 
L 347.041485 292.209605 
L 347.09343 292.356718 
L 347.13239 292.18366 
L 347.177842 289.941117 
L 347.236281 272.853766 
L 347.268747 292.270417 
L 347.301213 287.599884 
L 347.398612 292.439123 
L 347.333679 287.500593 
L 347.418091 291.166395 
L 347.586915 292.493935 
L 347.619381 292.422386 
L 347.723273 292.509263 
L 347.755739 292.49646 
L 348.002481 292.433297 
L 348.073907 292.205636 
L 348.145332 290.730641 
L 348.197278 288.725366 
L 348.24273 291.143409 
L 348.268703 292.526672 
L 348.346622 291.068257 
L 348.372595 291.259437 
L 348.476486 292.563429 
L 348.534925 292.326029 
L 348.573885 289.909931 
L 348.632324 261.313291 
L 348.658297 291.980139 
L 348.684269 280.902488 
L 348.794654 292.48578 
L 348.801147 291.192079 
L 348.807641 289.90957 
L 348.892052 292.554892 
L 348.905039 292.038264 
L 348.911532 292.016243 
L 348.918025 292.309327 
L 348.943998 292.224158 
L 349.034903 292.586961 
L 349.04789 292.527331 
L 349.145288 292.598648 
L 349.379044 292.62255 
L 349.924475 292.554761 
L 350.028366 292.322485 
L 350.093298 291.104368 
L 350.158231 288.031173 
L 350.19719 291.233233 
L 350.223163 292.651004 
L 350.314068 292.19374 
L 350.346534 292.687225 
L 350.411466 291.993914 
L 350.476398 287.676428 
L 350.508864 283.666577 
L 350.554317 292.63772 
L 350.586783 289.731875 
L 350.625742 292.691715 
L 350.677688 292.129014 
L 350.801059 292.71961 
L 350.853005 292.522196 
L 350.950403 291.354752 
L 351.028322 288.918878 
L 351.067281 291.037495 
L 351.099748 292.732867 
L 351.177666 291.274793 
L 351.203639 291.485314 
L 351.32701 292.757008 
L 351.378956 292.675419 
L 351.411422 291.912163 
L 351.450381 281.539692 
L 351.495834 222.059207 
L 351.554273 287.869514 
L 351.567259 254.597134 
L 351.632192 291.382899 
L 351.684137 290.00819 
L 351.697124 283.363776 
L 351.775042 292.416127 
L 351.788029 290.682507 
L 351.885427 292.574959 
L 351.801015 290.515296 
L 351.904907 292.53832 
L 351.9114 292.269991 
L 351.995812 292.672408 
L 352.008798 292.669903 
L 352.021785 292.632244 
L 352.31398 292.759022 
L 353.300949 292.846057 
L 355.898238 292.972164 
L 355.995636 292.71321 
L 356.073555 292.875191 
L 356.099528 292.854508 
L 356.112514 292.800907 
L 356.157967 291.895508 
L 356.229392 284.294837 
L 356.261858 291.577173 
L 356.339777 293.014122 
L 356.300817 290.101788 
L 356.372243 291.894558 
L 356.5086 293.044141 
L 356.54756 292.892394 
L 356.716383 291.704621 
L 356.787809 286.957777 
L 356.826768 291.044927 
L 356.937153 293.056324 
L 356.943646 293.056283 
L 356.995592 292.412159 
L 357.060524 292.959005 
L 357.118963 293.087153 
L 357.170909 292.966446 
L 357.209868 291.593651 
L 357.255321 275.768843 
L 357.281294 254.896754 
L 357.339733 290.284541 
L 357.359212 282.380269 
L 357.450117 292.977848 
L 357.378692 280.242034 
L 357.47609 292.872918 
L 357.489077 290.50054 
L 357.560502 293.065432 
L 357.579982 292.625676 
L 357.644914 293.090366 
L 357.69686 293.046299 
L 357.800751 293.11515 
L 357.716339 293.036069 
L 357.813738 293.101787 
L 357.969575 293.134898 
L 359.144848 293.045436 
L 359.281206 292.088075 
L 359.339645 291.558707 
L 359.385097 292.022708 
L 359.495482 293.199752 
L 359.540935 292.989064 
L 359.579894 290.643594 
L 359.63184 260.952835 
L 359.638333 255.306211 
L 359.664306 292.92326 
L 359.716251 278.283184 
L 359.81365 293.11842 
L 359.833129 290.821547 
L 359.930528 293.212966 
L 359.950007 292.90626 
L 360.047406 293.242221 
L 360.066885 293.17587 
L 360.183763 293.267177 
L 360.190257 293.26207 
L 360.37856 293.285296 
L 361.307091 293.225064 
L 361.462928 292.761548 
L 361.553833 289.266599 
L 361.592792 292.143578 
L 361.618765 293.346721 
L 361.677204 291.984435 
L 361.703177 292.390552 
L 361.761616 293.376087 
L 361.820055 292.886557 
L 361.872001 288.889876 
L 361.923947 271.071102 
L 361.956413 292.618151 
L 361.982386 284.943359 
L 362.073291 293.30774 
L 362.099264 291.716864 
L 362.196662 293.385167 
L 362.216141 293.067585 
L 362.333019 293.406408 
L 362.352499 293.370156 
L 362.501843 293.416173 
L 362.768065 293.401048 
L 362.89793 293.115577 
L 362.975848 292.122495 
L 363.053767 289.957591 
L 363.086233 291.752448 
L 363.118699 293.44893 
L 363.196618 291.788181 
L 363.209604 291.725205 
L 363.24207 292.152747 
L 363.326482 293.471886 
L 363.384921 293.095999 
L 363.423881 290.131781 
L 363.475826 259.141978 
L 363.495306 237.441361 
L 363.514786 292.398754 
L 363.560238 279.422846 
L 363.631664 292.952301 
L 363.573225 271.617671 
L 363.677116 292.426691 
L 363.683609 288.317004 
L 363.781008 293.34823 
L 363.787501 292.742409 
L 363.793994 292.467392 
L 363.84594 293.400783 
L 363.884899 293.308825 
L 363.897886 293.286154 
L 364.001777 293.457814 
L 364.105669 293.469532 
L 364.112162 293.473615 
L 364.352411 293.50366 
L 366.521147 293.590849 
L 366.605559 293.307531 
L 366.670491 293.483044 
L 366.696464 293.512205 
L 366.735423 293.371476 
L 366.780876 291.944343 
L 366.845808 284.854832 
L 366.878274 292.914597 
L 366.949699 293.625592 
L 366.917233 290.608148 
L 366.982166 292.465869 
L 367.105537 293.670913 
L 367.163976 293.452681 
L 367.183455 293.448991 
L 367.222415 293.53878 
L 367.27436 293.602488 
L 367.31332 293.47432 
L 367.358772 292.255113 
L 367.430198 278.755146 
L 367.456171 290.170631 
L 367.566555 293.616203 
L 367.488637 287.534033 
L 367.573049 293.566833 
L 367.592528 292.295881 
L 367.67694 293.695607 
L 367.702913 293.412226 
L 367.735379 293.706394 
L 367.787325 293.652524 
L 367.910696 293.720591 
L 368.001601 293.641075 
L 368.07952 293.056002 
L 368.170425 291.614199 
L 368.215877 292.435817 
L 368.28081 293.742024 
L 368.339249 293.105186 
L 368.384701 288.028292 
L 368.436647 265.270058 
L 368.456127 292.549839 
L 368.488593 286.180122 
L 368.566511 293.660061 
L 368.514566 283.08986 
L 368.605471 293.038671 
L 368.618457 291.54167 
L 368.702869 293.737144 
L 368.709362 293.561343 
L 368.722349 293.309516 
L 368.813254 293.758694 
L 368.832733 293.681195 
L 368.923639 293.762476 
L 369.072983 293.784065 
L 369.572961 293.788014 
L 369.683345 293.542219 
L 369.79373 292.89074 
L 369.878142 291.53756 
L 369.917101 292.565974 
L 369.969047 293.836011 
L 370.027486 292.975528 
L 370.079432 287.674868 
L 370.118391 274.767948 
L 370.150857 293.585308 
L 370.183323 287.228222 
L 370.241762 293.805309 
L 370.300201 292.652494 
L 370.306695 292.494289 
L 370.326174 293.801167 
L 370.365134 293.651113 
L 370.475518 293.865182 
L 370.3976 293.503787 
L 370.482012 293.848162 
L 370.501491 293.786316 
L 370.533957 293.871525 
L 370.585903 293.864776 
L 370.74174 293.885514 
L 370.891084 293.761855 
L 370.96251 293.477806 
L 371.040429 291.816892 
L 371.085881 290.629095 
L 371.12484 292.389827 
L 371.157306 293.901407 
L 371.228732 292.384729 
L 371.267691 291.909638 
L 371.313144 292.866539 
L 371.371583 293.92259 
L 371.430022 293.373929 
L 371.475474 288.633419 
L 371.52742 245.223523 
L 371.553393 204.019161 
L 371.579366 279.107357 
L 371.637805 226.364675 
L 371.735203 286.238582 
L 371.650791 226.263078 
L 371.761176 285.105276 
L 371.767669 273.395102 
L 371.858574 291.730479 
L 371.865068 288.043127 
L 371.923507 293.332352 
L 371.981946 292.641409 
L 372.098824 293.618909 
L 372.105317 293.591381 
L 372.176742 293.74389 
L 372.183235 293.719598 
L 372.3131 293.823073 
L 372.540363 293.903523 
L 373.449413 294.033159 
L 380.189377 294.424945 
L 380.98155 294.346736 
L 381.027002 294.20437 
L 381.078948 294.399468 
L 381.176346 294.478507 
L 381.202319 294.449178 
L 381.241278 293.975298 
L 381.286731 288.565649 
L 381.319197 279.662086 
L 381.351663 294.384855 
L 381.384129 289.481667 
L 381.501007 294.461541 
L 381.5075 294.418411 
L 381.52698 293.814548 
L 381.611392 294.485293 
L 381.689311 294.505747 
L 381.643858 294.369994 
L 381.715283 294.456133 
L 381.994492 294.027054 
L 382.065917 292.597383 
L 382.11137 291.379081 
L 382.150329 293.06723 
L 382.189289 294.530329 
L 382.254221 293.16072 
L 382.325646 291.192903 
L 382.364606 293.088514 
L 382.397072 294.54295 
L 382.468497 293.106697 
L 382.507456 292.725839 
L 382.552909 293.483822 
L 382.624334 294.564352 
L 382.682773 294.210432 
L 382.721733 291.475678 
L 382.780172 254.899237 
L 382.799651 294.202038 
L 382.825624 283.65195 
L 382.890556 294.338932 
L 382.845104 278.436205 
L 382.942502 293.900046 
L 382.948995 293.937163 
L 382.961982 291.643555 
L 383.000941 294.503774 
L 383.052887 294.379405 
L 383.143792 294.56318 
L 383.072367 294.003296 
L 383.169765 294.550598 
L 383.189245 294.484079 
L 383.319109 294.579537 
L 383.48144 294.604116 
L 384.598273 294.480203 
L 384.689179 293.871339 
L 384.77359 292.885872 
L 384.81255 293.460761 
L 384.890468 294.689033 
L 384.948907 294.282782 
L 384.987867 291.28789 
L 385.039813 272.315952 
L 385.072279 294.163732 
L 385.098251 286.316825 
L 385.19565 294.543092 
L 385.215129 292.954743 
L 385.319021 294.688528 
L 385.338501 294.420736 
L 385.461872 294.715257 
L 385.474858 294.697416 
L 385.585243 294.724556 
L 385.883931 294.672303 
L 385.968343 294.517449 
L 386.039769 293.664929 
L 386.12418 290.929888 
L 386.156646 292.827897 
L 386.189113 294.750305 
L 386.273524 293.531233 
L 386.351443 294.767347 
L 386.416375 294.244261 
L 386.461828 289.760406 
L 386.513774 263.845532 
L 386.539747 294.130469 
L 386.565719 284.377689 
L 386.676104 294.612784 
L 386.591692 282.950594 
L 386.682597 293.147082 
L 386.689091 292.06612 
L 386.773502 294.754657 
L 386.786489 294.206318 
L 386.948819 294.787959 
L 387.234521 294.812999 
L 387.792938 294.759907 
L 387.883843 294.579544 
L 387.961762 293.292073 
L 388.013708 292.079737 
L 388.052667 293.628707 
L 388.091626 294.85111 
L 388.156558 293.508687 
L 388.234477 290.861834 
L 388.266943 293.184918 
L 388.292916 294.85207 
L 388.383821 294.037455 
L 388.435767 294.876567 
L 388.500699 294.258237 
L 388.552645 289.544381 
L 388.604591 264.248528 
L 388.630564 293.839999 
L 388.656536 285.329214 
L 388.760428 294.416799 
L 388.682509 282.890811 
L 388.766921 294.412336 
L 388.779908 291.942714 
L 388.86432 294.788612 
L 388.877306 294.218155 
L 389.000677 294.89526 
L 389.00717 294.873633 
L 389.020157 294.825689 
L 389.039637 294.900129 
L 389.111062 294.902946 
L 389.292872 294.921828 
L 389.903235 294.891532 
L 389.968167 294.747186 
L 390.046086 293.675421 
L 390.098031 292.726377 
L 390.136991 293.802137 
L 390.182443 294.972725 
L 390.247376 293.964235 
L 390.312308 287.015908 
L 390.331787 284.432572 
L 390.370747 294.927119 
L 390.39672 291.210976 
L 390.403213 291.249065 
L 390.494118 294.978922 
L 390.539571 294.564871 
L 390.649955 294.998894 
L 390.662942 294.988165 
L 390.870725 294.186014 
L 390.929164 290.57755 
L 390.96163 286.90996 
L 391.007082 294.870638 
L 391.013576 294.907674 
L 391.046042 292.312305 
L 391.085001 294.975435 
L 391.130454 294.299947 
L 391.260318 295.013058 
L 391.279798 295.032998 
L 391.32525 294.875851 
L 391.383689 293.739699 
L 391.461608 287.653406 
L 391.494074 293.013357 
L 391.584979 295.039216 
L 391.539526 292.611131 
L 391.610952 294.264563 
L 391.623938 294.16377 
L 391.662898 295.019917 
L 391.669391 295.052812 
L 391.70835 294.741735 
L 391.72783 294.672638 
L 391.779776 294.90637 
L 391.851201 295.054359 
L 391.896654 294.952805 
L 391.935613 293.892899 
L 391.974572 285.028683 
L 392.020025 161.885316 
L 392.11093 241.273131 
L 392.201835 287.766706 
L 392.123916 240.034348 
L 392.234301 285.046654 
L 392.240794 278.53356 
L 392.305727 293.035179 
L 392.338193 292.033261 
L 392.344686 290.483052 
L 392.409618 294.009367 
L 392.435591 293.781697 
L 392.448577 293.634249 
L 392.584935 294.557747 
L 392.591428 294.511877 
L 392.67584 294.679674 
L 392.753759 294.753667 
L 392.968035 294.89533 
L 393.604371 295.085737 
L 395.162744 295.27737 
L 398.487273 295.488 
L 398.487273 295.488 
" clip-path="url(#p46d2c5a368)" style="fill: none; stroke: #1f77b4; stroke-width: 1.5; stroke-linecap: square"/>
   </g>
   <g id="patch_3">
    <path d="M 57.6 307.584 
L 57.6 41.472 
" style="fill: none; stroke: #000000; stroke-width: 0.8; stroke-linejoin: miter; stroke-linecap: square"/>
   </g>
   <g id="patch_4">
    <path d="M 414.72 307.584 
L 414.72 41.472 
" style="fill: none; stroke: #000000; stroke-width: 0.8; stroke-linejoin: miter; stroke-linecap: square"/>
   </g>
   <g id="patch_5">
    <path d="M 57.6 307.584 
L 414.72 307.584 
" style="fill: none; stroke: #000000; stroke-width: 0.8; stroke-linejoin: miter; stroke-linecap: square"/>
   </g>
   <g id="patch_6">
    <path d="M 57.6 41.472 
L 414.72 41.472 
" style="fill: none; stroke: #000000; stroke-width: 0.8; stroke-linejoin: miter; stroke-linecap: square"/>
   </g>
  </g>
 </g>
 <defs>
  <clipPath id="p46d2c5a368">
   <rect x="57.6" y="41.472" width="357.12" height="266.112"/>
  </clipPath>
 </defs>
</svg>
